<?xml version="1.0" encoding="iso-8859-1"?>
<!-- Generator: Adobe Illustrator 16.0.0, SVG Export Plug-In . SVG Version: 6.00 Build 0)  -->
<!DOCTYPE svg PUBLIC "-//W3C//DTD SVG 1.1//EN" "http://www.w3.org/Graphics/SVG/1.1/DTD/svg11.dtd">
<svg version="1.1" xmlns="http://www.w3.org/2000/svg" xmlns:xlink="http://www.w3.org/1999/xlink" x="0px" y="0px"
	 width="146.144px" height="44.109px" viewBox="0 0 146.144 44.109" style="enable-background:new 0 0 146.144 44.109;"
	 xml:space="preserve">
<g id="Layer_1">
	<g>
		<path style="fill:#FFFFFF;" d="M17.183,43.197c-8.618,0-14.935-6.571-14.935-14.679v-0.106c0-8.108,6.263-14.785,15.042-14.785
			c5.406,0,8.778,1.802,11.455,4.77l-4.978,5.299c-1.82-1.908-3.64-3.126-6.531-3.126c-4.068,0-6.958,3.55-6.958,7.737v0.106
			c0,4.346,2.837,7.843,7.28,7.843c2.73,0,4.604-1.166,6.584-3.021l4.764,4.77C26.122,41.025,22.91,43.197,17.183,43.197z"/>
		<path style="fill:#FFFFFF;" d="M47.802,42.562v-3.073c-1.98,2.172-4.71,3.604-8.672,3.604c-5.406,0-9.849-3.074-9.849-8.691
			v-0.106c0-6.2,4.764-9.062,11.562-9.062c2.891,0,4.979,0.477,7.012,1.166v-0.477c0-3.338-2.087-5.193-6.156-5.193
			c-3.104,0-5.299,0.583-7.922,1.537l-2.034-6.147c3.158-1.378,6.263-2.279,11.134-2.279c8.886,0,12.793,4.558,12.793,12.242v16.481
			H47.802z M47.962,31.115c-1.392-0.636-3.212-1.06-5.192-1.06c-3.479,0-5.621,1.377-5.621,3.921v0.106
			c0,2.173,1.82,3.445,4.443,3.445c3.801,0,6.37-2.067,6.37-4.981V31.115z"/>
		<path style="fill:#FFFFFF;" d="M73.014,43.197c-8.618,0-14.935-6.571-14.935-14.679v-0.106c0-8.108,6.263-14.785,15.042-14.785
			c5.406,0,8.778,1.802,11.455,4.77l-4.979,5.299c-1.82-1.908-3.64-3.126-6.53-3.126c-4.068,0-6.958,3.55-6.958,7.737v0.106
			c0,4.346,2.837,7.843,7.28,7.843c2.73,0,4.604-1.166,6.584-3.021l4.764,4.77C81.953,41.025,78.741,43.197,73.014,43.197z"/>
		<path style="fill:#FFFFFF;" d="M104.971,42.562V26.716c0-3.815-1.819-5.776-4.925-5.776c-3.104,0-5.085,1.961-5.085,5.776v15.845
			h-8.136V3.876h8.136v14.309c1.874-2.385,4.282-4.558,8.404-4.558c6.155,0,9.742,4.027,9.742,10.546v18.389H104.971z"/>
		<path style="fill:#FFFFFF;" d="M143.619,31.168h-19.966c0.803,3.656,3.372,5.564,7.012,5.564c2.73,0,4.711-0.848,6.959-2.915
			l4.657,4.081c-2.677,3.285-6.531,5.299-11.723,5.299c-8.618,0-14.988-5.988-14.988-14.679v-0.106
			c0-8.108,5.835-14.785,14.185-14.785c9.582,0,13.972,7.366,13.972,15.421v0.106C143.727,29.949,143.673,30.426,143.619,31.168z
			 M129.755,20.092c-3.372,0-5.566,2.385-6.209,6.041h12.258C135.322,22.53,133.181,20.092,129.755,20.092z"/>
	</g>
</g>
<g id="Layer_2">
	<g>
	</g>
	<g>
	</g>
	<g>
	</g>
	<g>
	</g>
	<g>
	</g>
	<g>
	</g>
	<g>
	</g>
	<g>
	</g>
	<g>
	</g>
	<g>
	</g>
	<g>
	</g>
	<g>
	</g>
	<g>
	</g>
	<g>
	</g>
	<g>
	</g>
</g>
</svg>
