<?xml version="1.0" encoding="utf-8"?>
<!-- Generator: Adobe Illustrator 16.0.0, SVG Export Plug-In . SVG Version: 6.00 Build 0)  -->
<!DOCTYPE svg PUBLIC "-//W3C//DTD SVG 1.1//EN" "http://www.w3.org/Graphics/SVG/1.1/DTD/svg11.dtd">
<svg version="1.1" xmlns="http://www.w3.org/2000/svg" xmlns:xlink="http://www.w3.org/1999/xlink" x="0px" y="0px" width="50px"
	 height="49.8px" viewBox="0 0 50 49.8" style="enable-background:new 0 0 50 49.8;" xml:space="preserve">
<style type="text/css">
<![CDATA[
	.st0{fill:#FFFFFF;stroke:#808285;stroke-width:1.0563;}
	.st1{fill:#C0D028;}
	.st2{fill:url(#SVGID_1_);}
	.st3{fill:#FFFFFF;stroke:#808285;stroke-width:0.4225;}
	.st4{fill:#FFFFFF;stroke:#808285;stroke-width:0.6338;}
	.st5{fill:#FFFFFF;stroke:#808285;stroke-width:0.6761;}
	.st6{fill:#FFFFFF;stroke:#808285;stroke-width:0.8451;}
	.st7{display:none;}
]]>
</style>
<g id="Layer_2">
	<g id="NPfmWn.tif" class="st7">
		
			<image style="display:inline;overflow:visible;" width="1030" height="1021" id="Layer_0_1_" xlink:href="BD73B7B71A09C4DB.png"  transform="matrix(9.420461e-02 0 0 9.420461e-02 -23.5151 -23.4106)">
		</image>
	</g>
	<linearGradient id="SVGID_1_" gradientUnits="userSpaceOnUse" x1="0" y1="24.8892" x2="49.9995" y2="24.8892">
		<stop  offset="0" style="stop-color:#FFFFFF"/>
		<stop  offset="1" style="stop-color:#FFFFFF"/>
	</linearGradient>
	<path class="st2" d="M50,37.9c0,6.5-5.3,11.9-11.9,11.9H11.9C5.3,49.8,0,44.5,0,37.9V11.9C0,5.3,5.3,0,11.9,0h26.3
		C44.7,0,50,5.3,50,11.9V37.9z"/>
</g>
<g id="Layer_1">
	<g>
		<rect x="21.2" y="20.5" class="st1" width="7.6" height="7.6"/>
		<g>
			<rect x="32.3" y="22.3" class="st3" width="4.3" height="4.3"/>
			<rect x="22.2" y="11.7" class="st5" width="5.5" height="5.5"/>
			<rect x="11.6" y="20.9" class="st0" width="6.8" height="6.8"/>
			<rect x="12.9" y="30.5" class="st3" width="4.2" height="4.2"/>
			<rect x="21.6" y="31.2" class="st6" width="6.9" height="6.9"/>
			<rect x="31.5" y="30.2" class="st4" width="5.8" height="5.8"/>
		</g>
	</g>
</g>
</svg>
