<?xml version="1.0" encoding="utf-8"?>
<!-- Generator: Adobe Illustrator 16.0.0, SVG Export Plug-In . SVG Version: 6.00 Build 0)  -->
<!DOCTYPE svg PUBLIC "-//W3C//DTD SVG 1.1//EN" "http://www.w3.org/Graphics/SVG/1.1/DTD/svg11.dtd">
<svg version="1.1" id="Layer_1" xmlns="http://www.w3.org/2000/svg" xmlns:xlink="http://www.w3.org/1999/xlink" x="0px" y="0px"
	 width="500.24px" height="160.031px" viewBox="0 0 500.24 160.031" enable-background="new 0 0 500.24 160.031"
	 xml:space="preserve">
<g>
	<g>
		<path fill-rule="evenodd" clip-rule="evenodd" fill="#0060A8" d="M72.319,26.227c0,0-2.37-0.323-6.956-0.323
			c-4.583-0.078-6.953,0.323-6.953,0.323l0,0l-0.235-3.389l3.158-0.324l-1.106-17.11h-4.663v-4.68l0,0c0,0,0.789-0.725,9.799-0.725
			c9.014,0,9.802,0.725,9.802,0.725l0,0v4.68h-4.663l-1.106,17.11l3.158,0.324L72.319,26.227L72.319,26.227z"/>
		<path fill-rule="evenodd" clip-rule="evenodd" fill="#0060A8" d="M56.512,26.711c0,0-2.29,0.647-6.478,2.339
			c-4.269,1.777-6.327,3.069-6.327,3.069l0,0l-1.499-3.069l2.764-1.452l-7.429-15.417l-4.345,1.858l-1.74-4.355l0,0
			c0,0,0.551-0.97,8.851-4.522c8.298-3.469,9.326-3.147,9.326-3.147l0,0l1.74,4.361l-4.345,1.773l5.452,16.301l3-1.047
			L56.512,26.711L56.512,26.711z"/>
		<path fill-rule="evenodd" clip-rule="evenodd" fill="#0060A8" d="M42.126,33.327c0,0-1.896,1.453-5.136,4.683
			c-3.239,3.307-4.663,5.327-4.663,5.327l0,0l-2.529-2.261l2.054-2.5l-12.646-11.3l-3.323,3.391l-3.239-3.308l0,0
			c0,0,0.08-1.131,6.485-7.586c6.321-6.54,7.427-6.621,7.427-6.621l0,0l3.241,3.31l-3.321,3.39l11.066,12.915l2.452-2.1
			L42.126,33.327L42.126,33.327z"/>
		<path fill-rule="evenodd" clip-rule="evenodd" fill="#0060A8" d="M31.376,44.95c0,0-1.259,2.099-3,6.375
			c-1.818,4.279-2.375,6.701-2.375,6.701l0,0l-3.158-1.051l0.951-3.149l-15.89-5.487l-1.816,4.44l-4.271-1.777l0,0
			c0,0-0.315-1.049,3.161-9.605c3.48-8.473,4.351-8.955,4.351-8.955l0,0l4.269,1.775l-1.74,4.438l15.016,7.586l1.504-2.904
			L31.376,44.95L31.376,44.95z"/>
		<path fill-rule="evenodd" clip-rule="evenodd" fill="#0060A8" d="M25.689,59.881c0,0-0.318,2.419-0.395,7.1
			c0,4.682,0.395,7.104,0.395,7.104l0,0l-3.323,0.241l-0.313-3.228L5.298,72.226v4.762H0.712l0,0c0,0-0.712-0.805-0.712-10.007
			c0-9.2,0.712-10.086,0.712-10.086l0,0h4.586v4.842l16.755,1.127l0.313-3.226L25.689,59.881L25.689,59.881z"/>
		<path fill-rule="evenodd" clip-rule="evenodd" fill="#0060A8" d="M26.084,75.939c0,0,0.551,2.34,2.292,6.537
			c1.658,4.356,3,6.457,3,6.457l0,0l-3,1.532l-1.504-2.827l-15.016,7.588l1.74,4.359l-4.269,1.857l0,0c0,0-0.871-0.568-4.351-9.043
			c-3.476-8.47-3.161-9.52-3.161-9.52l0,0l4.271-1.776l1.816,4.439l15.89-5.485l-0.951-3.071L26.084,75.939L26.084,75.939z"/>
		<path fill-rule="evenodd" clip-rule="evenodd" fill="#0060A8" d="M32.404,90.547c0,0,1.425,1.937,4.587,5.326
			c3.24,3.309,5.218,4.68,5.218,4.68l0,0l-2.213,2.664l-2.452-2.096l-11.066,12.91l3.321,3.392l-3.241,3.308l0,0
			c0,0-1.106-0.082-7.427-6.619c-6.405-6.536-6.485-7.585-6.485-7.585l0,0l3.239-3.31l3.323,3.39l12.646-11.298l-2.054-2.502
			L32.404,90.547L32.404,90.547z"/>
		<path fill-rule="evenodd" clip-rule="evenodd" fill="#0060A8" d="M43.79,101.765c0,0,1.976,1.21,6.164,2.986
			c4.269,1.855,6.639,2.422,6.639,2.422l0,0l-1.11,3.227l-3-0.969l-5.375,16.223l4.348,1.856l-1.819,4.355l0,0
			c0,0-1.028,0.326-9.326-3.227c-8.3-3.471-8.771-4.44-8.771-4.44l0,0l1.736-4.354l4.347,1.855l7.427-15.416l-2.84-1.532
			L43.79,101.765L43.79,101.765z"/>
		<path fill-rule="evenodd" clip-rule="evenodd" fill="#0060A8" d="M58.487,107.575c0,0,2.293,0.321,6.876,0.403
			c4.586,0.08,6.956-0.403,6.956-0.403l0,0l0.318,3.472l-3.241,0.241l1.106,17.108h4.743v4.759l0,0c0,0-0.869,0.648-9.883,0.648
			c-9.01,0-9.799-0.648-9.799-0.648l0,0v-4.759h4.663l1.106-17.108l-3.158-0.241L58.487,107.575L58.487,107.575z"/>
		<path fill-rule="evenodd" clip-rule="evenodd" fill="#0060A8" d="M74.295,107.254c0,0,2.293-0.566,6.563-2.341
			c4.269-1.776,6.241-3.068,6.241-3.068l0,0l1.584,3.068l-2.845,1.453l7.427,15.411l4.348-1.854l1.74,4.358l0,0
			c0,0-0.477,0.967-8.851,4.517c-8.304,3.472-9.328,3.149-9.328,3.149l0,0l-1.74-4.357l4.347-1.775l-5.375-16.301l-3.082,1.049
			L74.295,107.254L74.295,107.254z"/>
		<path fill-rule="evenodd" clip-rule="evenodd" fill="#0060A8" d="M88.839,100.714c0,0,1.899-1.454,5.139-4.676
			c3.241-3.312,4.663-5.331,4.663-5.331l0,0l2.529,2.261l-2.058,2.502l12.649,11.3l3.319-3.393l3.245,3.311l0,0
			c0,0-0.083,1.131-6.486,7.588c-6.322,6.537-7.429,6.615-7.429,6.615l0,0l-3.241-3.307l3.318-3.391l-11.063-12.911l-2.452,2.095
			L88.839,100.714L88.839,100.714z"/>
		<path fill-rule="evenodd" clip-rule="evenodd" fill="#0060A8" d="M99.749,89.014c0,0,1.187-2.098,3.005-6.376
			c1.816-4.198,2.287-6.618,2.287-6.618l0,0l3.245,1.05l-0.952,3.067l15.886,5.487l1.82-4.441l4.188,1.778l0,0
			c0,0,0.318,1.049-3.082,9.522c-3.476,8.557-4.427,9.04-4.427,9.04l0,0l-4.265-1.774l1.816-4.44l-15.019-7.587l-1.499,2.906
			L99.749,89.014L99.749,89.014z"/>
		<path fill-rule="evenodd" clip-rule="evenodd" fill="#0060A8" d="M105.441,74.003c0,0,0.312-2.422,0.394-7.102
			c0-4.68-0.394-7.103-0.394-7.103l0,0l3.317-0.242l0.316,3.229l16.755-1.128v-4.762h4.583l0,0c0,0,0.715,0.803,0.715,10.006
			c0,9.2-0.715,10.007-0.715,10.007l0,0h-4.583v-4.763l-16.755-1.128l-0.316,3.229L105.441,74.003L105.441,74.003z"/>
		<path fill-rule="evenodd" clip-rule="evenodd" fill="#0060A8" d="M105.041,57.781c0,0-0.63-2.341-2.287-6.618
			c-1.742-4.355-3.005-6.455-3.005-6.455l0,0l3.005-1.536l1.418,2.906l15.099-7.585l-1.816-4.437l4.265-1.855l0,0
			c0,0,0.952,0.565,4.347,9.036c3.48,8.474,3.162,9.524,3.162,9.524l0,0l-4.268,1.773l-1.819-4.435l-15.884,5.565l0.947,3.069
			L105.041,57.781L105.041,57.781z"/>
		<path fill-rule="evenodd" clip-rule="evenodd" fill="#0060A8" d="M98.483,43.09c0,0-1.422-1.934-4.586-5.322
			c-3.241-3.308-5.14-4.681-5.14-4.681l0,0l2.14-2.665l2.447,2.099l11.067-12.913l-3.321-3.39l3.241-3.308l0,0
			c0,0,1.11,0.079,7.431,6.619c6.405,6.535,6.481,7.585,6.481,7.585l0,0l-3.241,3.307l-3.321-3.387L99.036,38.332l2.054,2.5
			L98.483,43.09L98.483,43.09z"/>
		<path fill-rule="evenodd" clip-rule="evenodd" fill="#0060A8" d="M87.026,31.955c0,0-2.057-1.208-6.25-3.065
			c-4.188-1.854-6.558-2.34-6.558-2.34l0,0l1.028-3.227l3.082,0.966l5.375-16.221l-4.349-1.855l1.74-4.355l0,0
			c0,0,1.028-0.325,9.326,3.226c8.377,3.469,8.857,4.437,8.857,4.437l0,0l-1.742,4.358l-4.345-1.854l-7.433,15.413l2.77,1.453
			L87.026,31.955L87.026,31.955z"/>
		<path fill-rule="evenodd" clip-rule="evenodd" fill="#0060A8" d="M47.584,49.71c0,0-0.953,1.05-2.535,3.473
			c-1.577,2.34-2.13,3.712-2.13,3.712l0,0l-1.82-1.049l0.951-1.695l-8.933-5.248l-1.578,2.422l-2.373-1.615l0,0
			c0,0,0-0.643,3.003-5.324c3.083-4.682,3.717-4.843,3.717-4.843l0,0l2.294,1.613l-1.587,2.422l8.145,6.374l1.264-1.532
			L47.584,49.71L47.584,49.71z"/>
		<path fill-rule="evenodd" clip-rule="evenodd" fill="#0060A8" d="M42.444,58.026c0,0-0.476,1.371-1.03,4.195
			c-0.553,2.822-0.553,4.274-0.553,4.274l0,0l-2.052-0.242l0.159-1.936l-10.12-1.372l-0.55,2.906l-2.768-0.565l0,0
			c0,0-0.318-0.646,0.71-6.134c1.106-5.489,1.583-5.892,1.583-5.892l0,0l2.764,0.486l-0.553,2.906l9.962,2.744l0.471-1.938
			L42.444,58.026L42.444,58.026z"/>
		<path fill-rule="evenodd" clip-rule="evenodd" fill="#0060A8" d="M40.861,67.708c0,0,0.083,1.455,0.636,4.277
			c0.471,2.826,1.028,4.198,1.028,4.198l0,0l-1.975,0.564l-0.553-1.854l-9.879,2.662l0.553,2.826l-2.77,0.564l0,0
			c0,0-0.471-0.404-1.578-5.813c-1.11-5.567-0.792-6.134-0.792-6.134l0,0l2.768-0.564l0.55,2.905l10.197-1.373l-0.235-2.018
			L40.861,67.708L40.861,67.708z"/>
		<path fill-rule="evenodd" clip-rule="evenodd" fill="#0060A8" d="M42.998,77.311c0,0,0.633,1.294,2.134,3.634
			c1.581,2.339,2.609,3.469,2.609,3.469l0,0l-1.661,1.293l-1.183-1.534l-8.146,6.375l1.587,2.421l-2.298,1.616l0,0
			c0,0-0.63-0.165-3.712-4.845c-3.082-4.68-3.005-5.326-3.005-5.326l0,0l2.371-1.613l1.581,2.422l8.852-5.163l-0.948-1.779
			L42.998,77.311L42.998,77.311z"/>
		<path fill-rule="evenodd" clip-rule="evenodd" fill="#0060A8" d="M48.529,85.222c0,0,1.106,0.969,3.4,2.581
			c2.293,1.613,3.635,2.177,3.635,2.177l0,0l-0.948,1.858l-1.74-0.97l-5.136,9.121l2.448,1.614l-1.581,2.42l0,0
			c0,0-0.63,0.081-5.216-3.067c-4.583-3.144-4.824-3.793-4.824-3.793l0,0l1.583-2.341l2.373,1.616l6.242-8.313l-1.5-1.292
			L48.529,85.222L48.529,85.222z"/>
		<path fill-rule="evenodd" clip-rule="evenodd" fill="#0060A8" d="M56.67,90.466c0,0,1.346,0.484,4.11,1.05
			c2.688,0.646,4.192,0.646,4.192,0.646l0,0l-0.239,2.097l-1.978-0.24l-1.263,10.412l2.768,0.564l-0.557,2.824l0,0
			c0,0-0.553,0.322-5.923-0.81c-5.458-1.047-5.852-1.613-5.852-1.613l0,0l0.553-2.824l2.847,0.565l2.605-10.089l-1.817-0.564
			L56.67,90.466L56.67,90.466z"/>
		<path fill-rule="evenodd" clip-rule="evenodd" fill="#0060A8" d="M66.156,92.161c0,0,1.424-0.082,4.188-0.566
			c2.768-0.565,4.109-1.129,4.109-1.129l0,0l0.557,2.018l-1.899,0.564l2.688,10.169l2.847-0.564l0.553,2.743l0,0
			c0,0-0.477,0.566-5.852,1.613c-5.375,1.132-5.927,0.81-5.927,0.81l0,0l-0.553-2.824l2.764-0.564L68.29,94.018l-1.899,0.24
			L66.156,92.161L66.156,92.161z"/>
		<path fill-rule="evenodd" clip-rule="evenodd" fill="#0060A8" d="M75.561,90.062c0,0,1.269-0.646,3.639-2.178
			c2.37-1.616,3.394-2.662,3.394-2.662l0,0l1.269,1.694l-1.505,1.209l6.247,8.313l2.37-1.616l1.581,2.341l0,0
			c0,0-0.157,0.649-4.74,3.793c-4.586,3.148-5.222,3.067-5.222,3.067l0,0l-1.578-2.42l2.372-1.614l-5.14-9.039l-1.74,0.969
			L75.561,90.062L75.561,90.062z"/>
		<path fill-rule="evenodd" clip-rule="evenodd" fill="#0060A8" d="M83.464,84.413c0,0,0.951-1.13,2.532-3.469
			c1.578-2.262,2.13-3.634,2.13-3.634l0,0l1.818,0.969l-0.947,1.779l8.932,5.163l1.583-2.422l2.37,1.535l0,0
			c0,0,0,0.725-3.005,5.322c-3.082,4.682-3.716,4.927-3.716,4.927l0,0l-2.289-1.616l1.577-2.421l-8.139-6.375l-1.265,1.534
			L83.464,84.413L83.464,84.413z"/>
		<path fill-rule="evenodd" clip-rule="evenodd" fill="#0060A8" d="M88.684,76.182c0,0,0.473-1.454,1.026-4.198
			c0.552-2.822,0.634-4.358,0.634-4.358l0,0l1.975,0.243l-0.158,2.018l10.193,1.371l0.557-2.906l2.766,0.567l0,0
			c0,0,0.236,0.563-0.788,6.133c-1.11,5.408-1.583,5.809-1.583,5.809l0,0l-2.768-0.565l0.553-2.743l-9.876-2.744l-0.559,1.937
			L88.684,76.182L88.684,76.182z"/>
		<path fill-rule="evenodd" clip-rule="evenodd" fill="#0060A8" d="M90.344,66.418c0,0-0.082-1.454-0.634-4.28
			c-0.473-2.823-1.026-4.194-1.026-4.194l0,0l1.972-0.568l0.559,1.858l9.876-2.662l-0.553-2.909l2.768-0.563l0,0
			c0,0,0.473,0.403,1.583,5.891c1.101,5.57,0.788,6.134,0.788,6.134l0,0l-2.766,0.565l-0.557-2.905l-10.193,1.373l0.237,2.016
			L90.344,66.418L90.344,66.418z"/>
		<path fill-rule="evenodd" clip-rule="evenodd" fill="#0060A8" d="M88.209,56.733c0,0-0.635-1.293-2.134-3.712
			c-1.583-2.422-2.611-3.471-2.611-3.471l0,0l1.663-1.294l1.183,1.534l8.139-6.376l-1.577-2.419l2.37-1.616l0,0
			c0,0,0.635,0.164,3.635,4.844c3.082,4.68,3.005,5.328,3.005,5.328l0,0l-2.293,1.612l-1.66-2.421l-8.855,5.245l0.951,1.698
			L88.209,56.733L88.209,56.733z"/>
		<path fill-rule="evenodd" clip-rule="evenodd" fill="#0060A8" d="M82.593,48.662c0,0-1.101-0.966-3.394-2.583
			c-2.293-1.612-3.639-2.177-3.639-2.177l0,0l1.027-1.857l1.66,0.968l5.14-9.119l-2.372-1.613l1.578-2.422l0,0
			c0,0,0.635,0,5.222,3.066c4.583,3.147,4.74,3.793,4.74,3.793l0,0l-1.581,2.34l-2.37-1.613l-6.247,8.312l1.505,1.293L82.593,48.662
			L82.593,48.662z"/>
		<path fill-rule="evenodd" clip-rule="evenodd" fill="#0060A8" d="M74.377,43.415c0,0-1.346-0.481-4.033-1.128
			c-2.765-0.564-4.265-0.564-4.265-0.564l0,0l0.236-2.099l1.975,0.24l1.342-10.411l-2.841-0.563l0.548-2.825l0,0
			c0,0,0.557-0.323,5.932,0.806c5.452,1.05,5.847,1.535,5.847,1.535l0,0l-0.552,2.823l-2.846-0.564l-2.607,10.167l1.819,0.564
			L74.377,43.415L74.377,43.415z"/>
		<path fill-rule="evenodd" clip-rule="evenodd" fill="#0060A8" d="M64.893,41.802c0,0-1.501,0.081-4.189,0.565
			c-2.77,0.566-4.111,1.13-4.111,1.13l0,0l-0.633-2.018l1.898-0.564L55.17,30.747l-2.765,0.565l-0.556-2.824l0,0
			c0,0,0.398-0.484,5.769-1.617c5.379-1.046,6.009-0.725,6.009-0.725l0,0l0.553,2.825l-2.847,0.565l1.342,10.328l1.979-0.161
			L64.893,41.802L64.893,41.802z"/>
		<path fill-rule="evenodd" clip-rule="evenodd" fill="#0060A8" d="M55.409,43.979c0,0-1.267,0.647-3.639,2.18
			c-2.293,1.615-3.398,2.663-3.398,2.663l0,0l-1.265-1.693l1.501-1.212l-6.242-8.312l-2.37,1.613l-1.581-2.418l0,0
			c0,0,0.235-0.566,4.739-3.712c4.586-3.147,5.298-3.068,5.298-3.068l0,0l1.501,2.422l-2.37,1.614l5.138,9.035l1.736-0.964
			L55.409,43.979L55.409,43.979z"/>
		<path fill-rule="evenodd" clip-rule="evenodd" fill="#0060A8" d="M52.641,58.831c0,0-0.477,0.725-1.106,2.34
			c-0.712,1.614-0.869,2.503-0.869,2.503l0,0l-1.189-0.406l0.318-1.13l-5.928-2.019l-0.712,1.617l-1.581-0.646l0,0
			c0,0-0.077-0.404,1.187-3.549c1.266-3.227,1.66-3.391,1.66-3.391l0,0l1.582,0.647l-0.71,1.693l5.691,2.826l0.553-1.132
			L52.641,58.831L52.641,58.831z"/>
		<path fill-rule="evenodd" clip-rule="evenodd" fill="#0060A8" d="M50.507,64.48c0,0-0.079,0.888-0.079,2.581
			c-0.08,1.775,0.159,2.664,0.159,2.664l0,0l-1.269,0.163l-0.157-1.293l-6.242,0.486v1.773h-1.74l0,0c0,0-0.235-0.321-0.235-3.711
			c0-3.467,0.235-3.792,0.235-3.792l0,0h1.74v1.775l6.242,0.404l0.081-1.21L50.507,64.48L50.507,64.48z"/>
		<path fill-rule="evenodd" clip-rule="evenodd" fill="#0060A8" d="M50.742,70.452c0,0,0.159,0.886,0.87,2.501
			c0.636,1.613,1.11,2.422,1.11,2.422l0,0l-1.11,0.564l-0.551-1.047l-5.689,2.824l0.708,1.614l-1.578,0.729l0,0
			c0,0-0.4-0.247-1.664-3.393c-1.265-3.149-1.183-3.551-1.183-3.551l0,0l1.581-0.728l0.707,1.697l5.934-2.101l-0.4-1.131
			L50.742,70.452L50.742,70.452z"/>
		<path fill-rule="evenodd" clip-rule="evenodd" fill="#0060A8" d="M53.112,75.939c0,0,0.554,0.727,1.74,1.936
			c1.188,1.293,1.977,1.776,1.977,1.776l0,0l-0.87,0.969l-0.871-0.727l-4.187,4.763l1.264,1.209l-1.183,1.289l0,0
			c0,0-0.395-0.076-2.846-2.498c-2.37-2.423-2.37-2.824-2.37-2.824l0,0l1.183-1.212l1.266,1.212l4.745-4.116l-0.794-0.97
			L53.112,75.939L53.112,75.939z"/>
		<path fill-rule="evenodd" clip-rule="evenodd" fill="#0060A8" d="M57.381,80.059c0,0,0.794,0.402,2.375,1.046
			c1.577,0.728,2.449,0.891,2.449,0.891l0,0l-0.397,1.207l-1.187-0.321l-1.975,6.053l1.66,0.724l-0.708,1.617l0,0
			c0,0-0.398,0.079-3.48-1.213c-3.082-1.29-3.317-1.693-3.317-1.693l0,0l0.71-1.615l1.578,0.729l2.77-5.812l-1.028-0.565
			L57.381,80.059L57.381,80.059z"/>
		<path fill-rule="evenodd" clip-rule="evenodd" fill="#0060A8" d="M62.834,82.153c0,0,0.951,0.163,2.609,0.163
			c1.74,0,2.607-0.163,2.607-0.163l0,0l0.081,1.292l-1.184,0.079l0.473,6.455l1.74-0.075v1.773l0,0c0,0-0.318,0.321-3.717,0.321
			c-3.317,0-3.636-0.321-3.636-0.321l0,0v-1.698h1.742l0.394-6.455l-1.188-0.079L62.834,82.153L62.834,82.153z"/>
		<path fill-rule="evenodd" clip-rule="evenodd" fill="#0060A8" d="M68.767,81.995c0,0,0.865-0.163,2.447-0.891
			c1.583-0.644,2.372-1.046,2.372-1.046l0,0l0.557,1.046l-1.03,0.565l2.766,5.812l1.581-0.729l0.712,1.615l0,0
			c0,0-0.238,0.403-3.319,1.693c-3.085,1.292-3.48,1.213-3.48,1.213l0,0l-0.712-1.617l1.66-0.724l-2.054-6.053l-1.104,0.402
			L68.767,81.995L68.767,81.995z"/>
		<path fill-rule="evenodd" clip-rule="evenodd" fill="#0060A8" d="M74.142,79.651c0,0,0.71-0.563,1.976-1.776
			c1.183-1.209,1.736-1.936,1.736-1.936l0,0l0.952,0.807l-0.792,0.97l4.74,4.116l1.269-1.292l1.184,1.292l0,0
			c0,0,0,0.401-2.371,2.824c-2.37,2.422-2.77,2.498-2.77,2.498l0,0l-1.26-1.289l1.26-1.291l-4.187-4.681l-0.867,0.646L74.142,79.651
			L74.142,79.651z"/>
		<path fill-rule="evenodd" clip-rule="evenodd" fill="#0060A8" d="M78.248,75.296c0,0,0.475-0.81,1.107-2.343
			c0.71-1.615,0.869-2.582,0.869-2.582l0,0l1.187,0.404l-0.316,1.209l5.932,2.019l0.707-1.615l1.583,0.647l0,0
			c0,0,0.077,0.404-1.188,3.551c-1.263,3.226-1.657,3.39-1.657,3.39l0,0l-1.583-0.646l0.712-1.694l-5.693-2.826l-0.551,1.049
			L78.248,75.296L78.248,75.296z"/>
		<path fill-rule="evenodd" clip-rule="evenodd" fill="#0060A8" d="M80.382,69.645c0,0,0.159-0.886,0.159-2.584
			c0-1.774-0.159-2.661-0.159-2.661l0,0l1.265-0.164l0.077,1.212l6.326-0.405v-1.774h1.736l0,0c0,0,0.239,0.324,0.239,3.711
			c0,3.471-0.239,3.795-0.239,3.795l0,0H88.05v-1.778l-6.326-0.484l-0.077,1.211L80.382,69.645L80.382,69.645z"/>
		<path fill-rule="evenodd" clip-rule="evenodd" fill="#0060A8" d="M80.306,63.593c0,0-0.241-0.886-0.871-2.502
			c-0.712-1.613-1.187-2.341-1.187-2.341l0,0l1.187-0.643l0.553,1.128l5.61-2.907l-0.712-1.613l1.583-0.729l0,0
			c0,0,0.394,0.245,1.657,3.391c1.346,3.229,1.188,3.55,1.188,3.55l0,0l-1.583,0.729l-0.707-1.697l-5.932,2.099l0.398,1.129
			L80.306,63.593L80.306,63.593z"/>
		<path fill-rule="evenodd" clip-rule="evenodd" fill="#0060A8" d="M77.853,58.026c0,0-0.553-0.649-1.736-1.938
			c-1.187-1.211-1.899-1.773-1.899-1.773l0,0l0.792-0.971l0.867,0.807l4.187-4.841l-1.26-1.292l1.183-1.209l0,0
			c0,0,0.394,0,2.846,2.42c2.371,2.419,2.371,2.823,2.371,2.823l0,0l-1.184,1.293l-1.269-1.293l-4.74,4.278l0.792,0.887
			L77.853,58.026L77.853,58.026z"/>
		<path fill-rule="evenodd" clip-rule="evenodd" fill="#0060A8" d="M73.506,53.908c0,0-0.71-0.482-2.293-1.129
			c-1.582-0.729-2.447-0.887-2.447-0.887l0,0l0.395-1.212l1.104,0.322l1.978-6.051l-1.583-0.727l0.635-1.615l0,0
			c0,0,0.395-0.08,3.477,1.211c3.162,1.292,3.317,1.693,3.317,1.693l0,0l-0.63,1.616l-1.66-0.727l-2.768,5.812l1.11,0.565
			L73.506,53.908L73.506,53.908z"/>
		<path fill-rule="evenodd" clip-rule="evenodd" fill="#0060A8" d="M67.972,51.728c0,0-0.869-0.082-2.528-0.16
			c-1.74,0-2.609,0.16-2.609,0.16l0,0l-0.159-1.289l1.187-0.083l-0.395-6.377h-1.736v-1.774l0,0c0,0,0.314-0.24,3.631-0.24
			c3.403-0.082,3.716,0.24,3.716,0.24l0,0v1.696l-1.74,0.078l-0.471,6.377l1.264,0.083L67.972,51.728L67.972,51.728z"/>
		<path fill-rule="evenodd" clip-rule="evenodd" fill="#0060A8" d="M62.046,51.892c0,0-0.871,0.241-2.448,0.887
			c-1.582,0.725-2.293,1.207-2.293,1.207l0,0L56.67,52.86l1.11-0.567l-2.846-5.813l-1.582,0.729l-0.631-1.615l0,0
			c0,0,0.155-0.403,3.237-1.693c3.162-1.373,3.479-1.213,3.479-1.213l0,0l0.712,1.617l-1.663,0.723l2.058,6.053l1.106-0.402
			L62.046,51.892L62.046,51.892z"/>
		<path fill-rule="evenodd" clip-rule="evenodd" fill="#0060A8" d="M56.67,54.394c0,0-0.711,0.563-1.895,1.772
			c-1.265,1.211-1.74,2.019-1.74,2.019l0,0l-1.03-0.888l0.794-0.887l-4.746-4.195l-1.182,1.212l-1.266-1.212l0,0
			c0,0,0.078-0.402,2.448-2.824c2.374-2.501,2.769-2.501,2.769-2.501l0,0l1.183,1.211l-1.183,1.291l4.112,4.842l0.947-0.805
			L56.67,54.394L56.67,54.394z"/>
	</g>
	<rect x="1.106" y="150.507" fill-rule="evenodd" clip-rule="evenodd" fill="#00AF65" width="499.134" height="9.524"/>
	<path fill-rule="evenodd" clip-rule="evenodd" fill="#0060A8" d="M442.542,49.551h-2.528l0,0c-0.637,1.856-0.948,2.096-2.372,2.096
		c-3.557,0-8.144-2.905-17.865-2.905c-14.857,0-24.895,7.992-24.895,19.692c0,5.974,2.211,11.3,7.744,15.902
		c10.276,8.553,34.858,14.687,34.858,27.839c0,8.232-7.352,13.562-18.414,13.562c-7.986,0-21.819-4.601-21.978-18.727l0,0h-2.765
		v20.581h2.765l0,0c0.794-1.937,1.898-2.908,3.481-2.908c3.082,0,11.221,4.039,20.942,4.039c14.309,0,26.007-9.766,26.007-21.712
		c0-5.084-1.582-9.846-7.987-15.171C426.42,80.862,403.18,77.233,403.18,63.109c0-7.021,6.797-11.462,16.361-11.462
		c9.328,0,18.895,4.441,20.313,15.74l0,0h2.688V49.551L442.542,49.551z"/>
	<path fill-rule="evenodd" clip-rule="evenodd" fill="#0060A8" d="M185.27,65.287c0-9.281,2.609-12.186,9.875-12.186l0,0v-2.34
		h-31.217v2.34l0,0c7.427,0,9.879,2.503,9.879,12.186l0,0v47.776l0,0c0,9.846-2.77,12.267-9.879,12.267l0,0v2.261h31.217v-2.261l0,0
		c-7.267,0-9.875-2.823-9.875-12.267l0,0V65.287L185.27,65.287z"/>
	<path fill-rule="evenodd" clip-rule="evenodd" fill="#0060A8" d="M287.07,71.42l-0.077-17.917h-2.922l0,0
		c-0.318,0.322-0.951,0.727-2.294,0.727c-3.952,0-10.832-4.922-26.795-4.922c-26.403,0-45.448,17.266-45.448,41.157
		c0,22.922,18.495,39.464,44.18,39.464c14.942,0,24.269-4.682,32.331-3.551c0.155,0,4.348-17.593,4.425-17.834l0,0h-2.37l0,0
		c-8.616,14.929-20.95,18.319-30.982,18.319c-19.207,0-35.65-16.465-35.65-38.818c0-20.742,13.203-35.673,34.303-35.673
		c13.833,0,24.741,7.508,28.931,19.047l0,0H287.07L287.07,71.42z"/>
	<path fill-rule="evenodd" clip-rule="evenodd" fill="#0060A8" d="M365.083,79.57h-2.607l0,0c-1.187,6.539-3.476,7.426-9.408,7.426
		l0,0h-24.183V54.231h24.977l0,0c9.562,0,12.567,0.645,14.543,9.119l0,0h1.659V50.439h-62.52v2.34l0,0
		c7.432,0,9.802,2.661,9.802,12.186l0,0v47.938l0,0c0,10.167-3.005,12.104-9.802,12.104l0,0v2.261h62.52l3.95-14.364h-2.607l0,0
		c-5.137,10.085-8.299,10.57-21.026,10.57l0,0h-15.173l0,0c-4.823,0-6.322-1.453-6.322-5.166l0,0V90.789h21.495l0,0
		c8.935,0,10.278,0.806,12.096,7.345l0,0h2.607V79.57L365.083,79.57z"/>
	<path fill-rule="evenodd" clip-rule="evenodd" fill="#0060A8" d="M489.096,64.965c0-9.281,2.606-12.186,9.879-12.186l0,0v-2.34
		h-31.221v2.34l0,0c7.433,0,9.879,2.501,9.879,12.186l0,0v47.776l0,0c0,9.845-2.764,12.266-9.879,12.266l0,0v2.261h31.221v-2.261
		l0,0c-7.272,0-9.879-2.825-9.879-12.266l0,0V64.965L489.096,64.965z"/>
	<path fill-rule="evenodd" clip-rule="evenodd" fill="#00AF65" d="M163.216,6.859h3.082v12.104l0,0c0,1.289,0.082,2.26,0.235,2.824
		c0.159,0.564,0.398,1.05,0.792,1.453c0.636,0.724,1.424,1.291,2.293,1.614c0.867,0.402,1.896,0.563,3.005,0.563
		c1.896,0,3.4-0.482,4.583-1.368c1.187-0.972,1.736-2.18,1.736-3.797l0,0V6.859h3.085v13.558l0,0c0,2.339-0.871,4.197-2.611,5.648
		c-1.74,1.453-3.951,2.178-6.793,2.178c-1.664,0-3.164-0.239-4.504-0.806c-1.347-0.566-2.458-1.372-3.322-2.502
		c-0.63-0.647-1.028-1.372-1.264-2.179c-0.237-0.808-0.318-2.02-0.318-3.711l0,0V6.859L163.216,6.859z"/>
	<polygon fill-rule="evenodd" clip-rule="evenodd" fill="#00AF65" points="199.732,27.839 199.732,6.859 202.497,6.859 
		216.885,23.159 216.885,6.859 219.967,6.859 219.967,27.839 217.199,27.839 202.895,11.539 202.895,27.839 199.732,27.839 	"/>
	<polygon fill-rule="evenodd" clip-rule="evenodd" fill="#00AF65" points="238.857,27.839 238.857,6.859 241.939,6.859 
		241.939,27.839 238.857,27.839 	"/>
	<polygon fill-rule="evenodd" clip-rule="evenodd" fill="#00AF65" points="267.075,28.004 257.513,6.859 260.752,6.859 
		267.551,21.87 274.504,6.859 277.745,6.859 267.945,28.004 267.075,28.004 	"/>
	<polygon fill-rule="evenodd" clip-rule="evenodd" fill="#00AF65" points="293.711,27.839 293.711,6.859 306.831,6.859 
		306.831,9.52 296.793,9.52 296.793,15.896 306.596,15.896 306.596,18.641 296.793,18.641 296.793,25.176 307.148,25.176 
		307.148,27.839 293.711,27.839 	"/>
	<path fill-rule="evenodd" clip-rule="evenodd" fill="#00AF65" d="M325.326,27.839V6.859h6.405l0,0c2.211,0,3.951,0.483,5.134,1.532
		c1.187,0.968,1.818,2.34,1.818,4.196c0,1.372-0.313,2.503-1.028,3.392c-0.632,0.804-1.658,1.45-3.079,1.854
		c0.313,0.161,0.708,0.486,1.025,0.808c0.316,0.241,0.711,0.806,1.264,1.532l0,0l5.299,7.667h-3.794l-3.716-5.487l0,0
		c-1.188-1.616-2.058-2.744-2.766-3.147c-0.71-0.484-1.505-0.725-2.451-0.725l0,0h-0.946v9.359H325.326L325.326,27.839
		L325.326,27.839z M328.491,15.979h2.604l0,0c1.424,0,2.528-0.325,3.24-0.809c0.713-0.567,1.106-1.373,1.106-2.502
		c0-1.129-0.316-1.937-1.023-2.501c-0.712-0.482-1.822-0.729-3.323-0.729l0,0h-2.604V15.979L328.491,15.979z"/>
	<path fill-rule="evenodd" clip-rule="evenodd" fill="#00AF65" d="M357.338,26.227v-3.953l0,0c1.028,1.129,1.977,1.854,2.846,2.34
		c0.947,0.482,1.894,0.725,2.924,0.725c1.028,0,1.898-0.243,2.529-0.725c0.633-0.486,0.947-1.131,0.947-1.938
		c0-0.727-0.236-1.292-0.632-1.855c-0.394-0.487-1.423-1.212-3.003-2.179c-2.448-1.533-4.03-2.745-4.663-3.551
		c-0.633-0.891-0.948-1.859-0.948-3.066c0-1.616,0.634-2.908,1.816-3.957c1.187-1.05,2.765-1.612,4.664-1.612
		c0.788,0,1.663,0.16,2.451,0.404c0.871,0.158,1.66,0.565,2.528,1.048l0,0v3.388l0,0c-1.027-0.725-1.898-1.289-2.688-1.611
		c-0.788-0.325-1.657-0.486-2.45-0.486c-0.946,0-1.741,0.24-2.371,0.725c-0.631,0.404-0.948,1.051-0.948,1.776
		c0,1.049,1.266,2.34,3.871,3.872l0,0l0.477,0.248l0,0c2.052,1.289,3.48,2.418,4.109,3.306c0.631,0.97,0.948,2.18,0.948,3.551
		c0,1.613-0.634,2.988-1.816,4.035c-1.189,1.049-2.766,1.532-4.665,1.532c-1.188,0-2.211-0.16-3.162-0.483
		C359.154,27.438,358.207,26.954,357.338,26.227L357.338,26.227L357.338,26.227z"/>
	<polygon fill-rule="evenodd" clip-rule="evenodd" fill="#00AF65" points="386.979,27.839 386.979,6.859 390.06,6.859 
		390.06,27.839 386.979,27.839 	"/>
	<path fill-rule="evenodd" clip-rule="evenodd" fill="#00AF65" d="M416.93,9.684h-4.895v15.332h4.895l0,0
		c2.77,0,4.823-0.645,6.404-2.019c1.581-1.372,2.294-3.226,2.294-5.65c0-2.34-0.713-4.196-2.294-5.567
		C421.753,10.408,419.699,9.684,416.93,9.684L416.93,9.684L416.93,9.684L416.93,9.684z M416.93,6.859
		c1.663,0,3.006,0.158,4.194,0.402c1.181,0.322,2.21,0.806,3.238,1.373c1.424,0.967,2.607,2.258,3.399,3.711
		c0.79,1.532,1.184,3.226,1.184,5.001c0,1.858-0.394,3.474-1.184,5.006c-0.792,1.536-1.976,2.744-3.399,3.713
		c-0.947,0.646-2.058,1.05-3.238,1.372c-1.188,0.322-2.531,0.402-4.194,0.402l0,0h-7.98V6.859H416.93L416.93,6.859z"/>
	<path fill-rule="evenodd" clip-rule="evenodd" fill="#00AF65" d="M449.263,18.964h6.793l-3.394-7.587L449.263,18.964
		L449.263,18.964L449.263,18.964z M442.07,27.839l9.481-20.98h2.293l9.563,20.98h-3.241l-2.768-6.133h-9.322l-2.847,6.133H442.07
		L442.07,27.839z"/>
	<path fill-rule="evenodd" clip-rule="evenodd" fill="#00AF65" d="M487.673,9.684h-4.979v15.332h4.979l0,0
		c2.688,0,4.823-0.645,6.321-2.019c1.583-1.372,2.372-3.226,2.372-5.65c0-2.34-0.789-4.196-2.372-5.567
		C492.496,10.408,490.361,9.684,487.673,9.684L487.673,9.684L487.673,9.684L487.673,9.684z M487.673,6.859
		c1.581,0,3.004,0.158,4.11,0.402c1.188,0.322,2.293,0.806,3.24,1.373c1.501,0.967,2.611,2.258,3.399,3.711
		c0.87,1.532,1.265,3.226,1.265,5.001c0,1.858-0.395,3.474-1.265,5.006c-0.788,1.536-1.898,2.744-3.399,3.713
		c-0.947,0.646-2.053,1.05-3.163,1.372c-1.184,0.322-2.606,0.402-4.188,0.402l0,0h-8.058V6.859H487.673L487.673,6.859z"/>
</g>
</svg>
