<?xml version="1.0" encoding="iso-8859-1"?>
<!-- Generator: Adobe Illustrator 16.0.0, SVG Export Plug-In . SVG Version: 6.00 Build 0)  -->
<!DOCTYPE svg PUBLIC "-//W3C//DTD SVG 1.1//EN" "http://www.w3.org/Graphics/SVG/1.1/DTD/svg11.dtd">
<svg version="1.1" xmlns="http://www.w3.org/2000/svg" xmlns:xlink="http://www.w3.org/1999/xlink" x="0px" y="0px"
	 width="216.114px" height="40.948px" viewBox="0 0 216.114 40.948" style="enable-background:new 0 0 216.114 40.948;"
	 xml:space="preserve">
<g id="Layer_1">
	<g>
		<path style="fill:#FFFFFF;" d="M17.183,40.036c-8.618,0-14.935-6.571-14.935-14.679v-0.106c0-8.108,6.263-14.785,15.042-14.785
			c5.406,0,8.778,1.802,11.455,4.77l-4.978,5.299c-1.82-1.908-3.64-3.126-6.531-3.126c-4.068,0-6.958,3.55-6.958,7.737v0.106
			c0,4.346,2.837,7.843,7.28,7.843c2.73,0,4.604-1.166,6.584-3.021l4.764,4.77C26.122,37.864,22.91,40.036,17.183,40.036z"/>
		<path style="fill:#FFFFFF;" d="M47.802,39.4v-3.074c-1.98,2.173-4.71,3.604-8.672,3.604c-5.406,0-9.849-3.074-9.849-8.691v-0.106
			c0-6.2,4.764-9.062,11.562-9.062c2.891,0,4.979,0.477,7.012,1.166V22.76c0-3.338-2.087-5.193-6.156-5.193
			c-3.104,0-5.299,0.583-7.922,1.537l-2.034-6.147c3.158-1.378,6.263-2.279,11.134-2.279c8.886,0,12.793,4.558,12.793,12.242V39.4
			H47.802z M47.962,27.954c-1.392-0.636-3.212-1.06-5.192-1.06c-3.479,0-5.621,1.377-5.621,3.921v0.106
			c0,2.173,1.82,3.445,4.443,3.445c3.801,0,6.37-2.067,6.37-4.981V27.954z"/>
		<path style="fill:#FFFFFF;" d="M73.014,40.036c-8.618,0-14.935-6.571-14.935-14.679v-0.106c0-8.108,6.263-14.785,15.042-14.785
			c5.406,0,8.778,1.802,11.455,4.77l-4.979,5.299c-1.82-1.908-3.64-3.126-6.53-3.126c-4.068,0-6.958,3.55-6.958,7.737v0.106
			c0,4.346,2.837,7.843,7.28,7.843c2.73,0,4.604-1.166,6.584-3.021l4.764,4.77C81.953,37.864,78.741,40.036,73.014,40.036z"/>
		<path style="fill:#FFFFFF;" d="M104.971,39.4V23.555c0-3.815-1.819-5.776-4.925-5.776c-3.104,0-5.085,1.961-5.085,5.776V39.4
			h-8.136V0.715h8.136v14.309c1.874-2.385,4.282-4.558,8.404-4.558c6.155,0,9.742,4.027,9.742,10.546V39.4H104.971z"/>
		<path style="fill:#FFFFFF;" d="M143.619,28.007h-19.966c0.803,3.656,3.372,5.564,7.012,5.564c2.73,0,4.711-0.848,6.959-2.915
			l4.657,4.081c-2.677,3.286-6.531,5.299-11.723,5.299c-8.618,0-14.988-5.988-14.988-14.679v-0.106
			c0-8.108,5.835-14.785,14.185-14.785c9.582,0,13.972,7.366,13.972,15.421v0.106C143.727,26.788,143.673,27.265,143.619,28.007z
			 M129.755,16.931c-3.372,0-5.566,2.385-6.209,6.041h12.258C135.322,19.369,133.181,16.931,129.755,16.931z"/>
	</g>
</g>
<g id="Layer_3">
	<g>
		<path style="fill:#A2B500;" d="M146.152,16.573v-0.048c0-3.984,3.24-6.409,6.429-6.409c2.645,0,4.355,1.393,5.444,2.929V5.125
			h1.271v17.521h-1.271V19.91c-1.141,1.608-2.825,3.024-5.444,3.024C149.393,22.934,146.152,20.558,146.152,16.573z M158.104,16.549
			v-0.048c0-3.144-2.645-5.256-5.393-5.256c-2.878,0-5.185,1.944-5.185,5.232v0.048c0,3.216,2.411,5.281,5.185,5.281
			C155.459,21.806,158.104,19.67,158.104,16.549z"/>
		<path style="fill:#A2B500;" d="M163,5.604h1.582v1.608H163V5.604z M163.156,10.405h1.27v12.241h-1.27V10.405z"/>
		<path style="fill:#A2B500;" d="M168.028,24.662l0.752-0.96c1.582,1.128,3.396,1.728,5.341,1.728c3.033,0,5.185-1.608,5.185-4.752
			v-1.776c-1.141,1.512-2.903,2.832-5.521,2.832c-3.188,0-6.352-2.256-6.352-5.76v-0.048c0-3.528,3.163-5.809,6.352-5.809
			c2.645,0,4.433,1.296,5.521,2.736v-2.448h1.271V20.75c0,1.776-0.622,3.168-1.685,4.152c-1.142,1.056-2.853,1.632-4.797,1.632
			C171.892,26.534,169.844,25.91,168.028,24.662z M179.384,15.949v-0.048c0-2.832-2.723-4.656-5.47-4.656
			c-2.774,0-5.107,1.776-5.107,4.632v0.048c0,2.76,2.385,4.681,5.107,4.681C176.661,20.606,179.384,18.734,179.384,15.949z"/>
		<path style="fill:#A2B500;" d="M184.279,5.604h1.582v1.608h-1.582V5.604z M184.436,10.405h1.27v12.241h-1.27V10.405z"/>
		<path style="fill:#A2B500;" d="M190.268,19.502v-8.017h-1.919v-1.08h1.919V6.493h1.27v3.912h4.641v1.08h-4.641v7.897
			c0,1.752,1.115,2.376,2.645,2.376c0.648,0,1.192-0.12,1.944-0.432v1.104c-0.674,0.288-1.322,0.432-2.151,0.432
			C191.927,22.862,190.268,21.83,190.268,19.502z"/>
		<path style="fill:#A2B500;" d="M197.706,19.094v-0.048c0-2.544,2.359-3.984,5.781-3.984c1.841,0,3.11,0.216,4.381,0.528v-0.528
			c0-2.472-1.633-3.745-4.355-3.745c-1.607,0-2.929,0.408-4.147,0.984l-0.467-1.032c1.452-0.624,2.878-1.056,4.692-1.056
			c1.789,0,3.215,0.456,4.174,1.344c0.882,0.816,1.349,1.944,1.349,3.456v7.633h-1.245v-2.04c-0.907,1.176-2.54,2.328-5.055,2.328
			C200.351,22.934,197.706,21.638,197.706,19.094z M207.895,18.062v-1.392c-1.115-0.264-2.593-0.552-4.485-0.552
			c-2.8,0-4.355,1.152-4.355,2.856v0.048c0,1.776,1.815,2.809,3.837,2.809C205.587,21.83,207.895,20.294,207.895,18.062z"/>
		<path style="fill:#A2B500;" d="M212.714,5.125h1.27v17.521h-1.27V5.125z"/>
	</g>
</g>
<g id="Layer_2">
	<g>
		<path style="fill:#EFBD47;" d="M146.236,36.396v-0.048c0-2.544,2.207-3.984,5.407-3.984c1.722,0,2.909,0.216,4.098,0.528v-0.528
			c0-2.472-1.527-3.745-4.073-3.745c-1.504,0-2.74,0.408-3.88,0.984l-0.437-1.032c1.358-0.624,2.691-1.056,4.389-1.056
			c1.673,0,3.007,0.456,3.904,1.344c0.824,0.816,1.261,1.944,1.261,3.456v7.633h-1.164v-2.04c-0.849,1.176-2.376,2.328-4.729,2.328
			C148.71,40.236,146.236,38.94,146.236,36.396z M155.766,35.364v-1.392c-1.043-0.264-2.425-0.552-4.195-0.552
			c-2.618,0-4.073,1.152-4.073,2.856v0.048c0,1.776,1.697,2.809,3.589,2.809C153.607,39.132,155.766,37.596,155.766,35.364z"/>
		<path style="fill:#EFBD47;" d="M158.744,27.707h1.188v3.48c0.97-2.184,3.03-3.769,5.479-3.672v1.296h-0.121
			c-2.861,0-5.358,2.136-5.358,6.12v5.017h-1.188V27.707z"/>
		<path style="fill:#EFBD47;" d="M164.562,33.875v-0.048c0-3.432,2.764-6.409,6.304-6.409c2.328,0,3.783,1.056,4.946,2.256
			l-0.849,0.864c-1.066-1.08-2.279-2.016-4.121-2.016c-2.813,0-4.995,2.328-4.995,5.256v0.048c0,2.952,2.255,5.305,5.092,5.305
			c1.745,0,3.104-0.888,4.146-2.041l0.825,0.72c-1.261,1.416-2.765,2.424-5.044,2.424C167.302,40.236,164.562,37.308,164.562,33.875
			z"/>
		<path style="fill:#EFBD47;" d="M176.827,22.427h1.188v7.561c0.824-1.44,2.206-2.568,4.461-2.568c3.128,0,4.946,2.112,4.946,5.041
			v7.489h-1.188v-7.272c0-2.521-1.431-4.177-3.928-4.177c-2.425,0-4.291,1.824-4.291,4.369v7.081h-1.188V22.427z"/>
		<path style="fill:#EFBD47;" d="M189.287,22.907h1.479v1.608h-1.479V22.907z M189.433,27.707h1.188v12.241h-1.188V27.707z"/>
		<path style="fill:#EFBD47;" d="M191.613,27.707h1.382l4.68,10.921l4.728-10.921h1.334l-5.553,12.337h-1.018L191.613,27.707z"/>
		<path style="fill:#EFBD47;" d="M202.981,33.852v-0.048c0-3.552,2.521-6.385,5.867-6.385c3.468,0,5.674,2.785,5.674,6.409
			c0,0.216,0,0.288-0.024,0.48h-10.256c0.219,3.048,2.425,4.825,4.85,4.825c1.915,0,3.225-0.84,4.243-1.92l0.824,0.72
			c-1.261,1.344-2.74,2.304-5.116,2.304C205.794,40.236,202.981,37.668,202.981,33.852z M213.237,33.251
			c-0.169-2.472-1.6-4.752-4.437-4.752c-2.449,0-4.34,2.041-4.559,4.752H213.237z"/>
	</g>
	<g>
	</g>
	<g>
	</g>
	<g>
	</g>
	<g>
	</g>
	<g>
	</g>
	<g>
	</g>
	<g>
	</g>
	<g>
	</g>
	<g>
	</g>
	<g>
	</g>
	<g>
	</g>
	<g>
	</g>
	<g>
	</g>
	<g>
	</g>
	<g>
	</g>
</g>
</svg>
