<?xml version="1.0" encoding="iso-8859-1"?>
<!-- Generator: Adobe Illustrator 16.0.0, SVG Export Plug-In . SVG Version: 6.00 Build 0)  -->
<!DOCTYPE svg PUBLIC "-//W3C//DTD SVG 1.1//EN" "http://www.w3.org/Graphics/SVG/1.1/DTD/svg11.dtd">
<svg version="1.1" xmlns="http://www.w3.org/2000/svg" xmlns:xlink="http://www.w3.org/1999/xlink" x="0px" y="0px"
	 width="159.093px" height="35.581px" viewBox="0 0 159.093 35.581" style="enable-background:new 0 0 159.093 35.581;"
	 xml:space="preserve">
<g id="Layer_2" style="display:none;">
</g>
<g id="Layer_1">
	<g>
		<path style="fill:#EFBD47;" d="M17.689,35.069c-9.889,0-17.233-7.633-17.233-17.282v-0.096c0-9.553,7.2-17.377,17.521-17.377
			c6.336,0,10.129,2.112,13.249,5.184l-4.705,5.425c-2.592-2.353-5.232-3.792-8.593-3.792c-5.665,0-9.745,4.704-9.745,10.465v0.096
			c0,5.76,3.984,10.561,9.745,10.561c3.84,0,6.193-1.536,8.833-3.936l4.704,4.752C28.01,32.765,24.17,35.069,17.689,35.069z"/>
		<path style="fill:#EFBD47;" d="M59.498,34.493l-3.072-7.537H42.216l-3.072,7.537h-7.537L46.008,0.65h6.817l14.401,33.843H59.498z
			 M49.321,9.531l-4.464,10.896h8.929L49.321,9.531z"/>
		<path style="fill:#EFBD47;" d="M83.113,35.069c-9.889,0-17.233-7.633-17.233-17.282v-0.096c0-9.553,7.2-17.377,17.521-17.377
			c6.336,0,10.129,2.112,13.249,5.184l-4.705,5.425c-2.592-2.353-5.232-3.792-8.593-3.792c-5.665,0-9.745,4.704-9.745,10.465v0.096
			c0,5.76,3.984,10.561,9.745,10.561c3.84,0,6.193-1.536,8.833-3.936l4.704,4.752C93.434,32.765,89.593,35.069,83.113,35.069z"/>
		<path style="fill:#EFBD47;" d="M120.937,34.493V21.004h-13.633v13.489h-7.393V0.89h7.393v13.297h13.633V0.89h7.393v33.603H120.937
			z"/>
		<path style="fill:#EFBD47;" d="M133.511,34.493V0.89h25.346v6.577h-18.001v6.816h15.841v6.577h-15.841v7.057h18.242v6.577H133.511
			z"/>
	</g>
</g>
<g id="Layer_3" style="display:none;">
</g>
</svg>
