<?xml version="1.0" encoding="utf-8"?>
<!-- Generator: Adobe Illustrator 16.0.0, SVG Export Plug-In . SVG Version: 6.00 Build 0)  -->
<!DOCTYPE svg PUBLIC "-//W3C//DTD SVG 1.1//EN" "http://www.w3.org/Graphics/SVG/1.1/DTD/svg11.dtd">
<svg version="1.1" id="Layer_1" xmlns="http://www.w3.org/2000/svg" xmlns:xlink="http://www.w3.org/1999/xlink" x="0px" y="0px"
	 width="158.7px" height="52.4px" viewBox="0 0 158.7 52.4" style="enable-background:new 0 0 158.7 52.4;" xml:space="preserve">
<style type="text/css">
<![CDATA[
	.st0{fill:#FFFFFF;stroke:#808285;stroke-width:1.0563;}
	.st1{fill:#808285;}
	.st2{fill:#C0D028;}
	.st3{fill:#FFFFFF;stroke:#808285;stroke-width:0.4225;}
	.st4{fill:#FFFFFF;stroke:#808285;stroke-width:0.6338;}
	.st5{fill:#FFFFFF;stroke:#808285;stroke-width:0.6761;}
	.st6{fill:#FFFFFF;stroke:#808285;stroke-width:0.8451;}
]]>
</style>
<g>
	<rect x="19.1" y="17.7" class="st2" width="14.8" height="14.8"/>
	<g>
		<rect x="40.6" y="21.2" class="st3" width="8.3" height="8.3"/>
		<rect x="21.2" y="0.5" class="st5" width="10.7" height="10.7"/>
		<rect x="0.6" y="18.5" class="st0" width="13.2" height="13.2"/>
		<rect x="3.1" y="37.2" class="st3" width="8.2" height="8.2"/>
		<rect x="19.8" y="38.5" class="st6" width="13.4" height="13.4"/>
		<rect x="39.1" y="36.5" class="st4" width="11.3" height="11.3"/>
	</g>
	<g>
		<path class="st1" d="M70.5,16.8h3.9c4.1,0,7.4,3.7,7.4,8.3c0,4.6-3.3,8.3-7.4,8.3c-0.4,0-3.9,0-3.9,0V16.8z M73.2,30.6h1.1
			c2.4,0,4.4-2.5,4.4-5.5c0-3-2-5.5-4.4-5.5c-0.4,0-1.1,0-1.1,0V30.6z"/>
		<path class="st2" d="M90.8,33.6c-1.8,0-3.1-0.6-4.7-1.8l0.3-2.5c1.7,0.9,3,1.5,4.4,1.5c1.2,0,2.8-0.7,2.8-2c0-3.1-7.8-1.9-7.8-7.5
			c0-2.9,2.5-4.9,5.5-4.9c1.9,0,3.1,0.6,4.8,2l-0.9,2.2c-1.2-0.8-2.6-1.4-3.9-1.4c-1.7,0-2.7,0.9-2.7,1.9c0,3,7.8,2.2,7.8,7.3
			C96.6,31.9,93.8,33.6,90.8,33.6z"/>
		<path class="st2" d="M112.4,22.4c0,3-2.5,5.5-5.5,5.5c-0.2,0-3.3,0-3.3,0v5.5h-2.8V16.8h6.1C109.9,16.8,112.4,19.3,112.4,22.4z
			 M109.6,22.4c0-1.5-1.2-2.8-2.8-2.8c-0.3,0-3.3,0-3.3,0v5.5h3.3C108.4,25.1,109.6,23.9,109.6,22.4z"/>
		<path class="st2" d="M120.1,33.4h-2.8V22.9c0-4.1,2.5-6.3,5.5-6.3c3.1,0,5.5,2.3,5.5,6.3v10.5h-2.8v-5.5h-5.5V33.4z M125.6,22.9
			c0-2.4-1.2-3.6-2.8-3.6c-1.5,0-2.8,1.2-2.8,3.6v2.2h5.5V22.9z"/>
		<path class="st2" d="M140.6,16.6c2,0,4.2,1.3,5.3,3.2l-1.7,1.5c-1.1-1.4-2.2-2-3.5-2c-2.2,0-4.1,2.2-4.1,5.8
			c0,3.6,1.9,5.8,4.1,5.8c1.2,0,2.4-0.6,3.5-2l1.7,1.5c-1.2,1.9-3.3,3.2-5.3,3.2c-4.2,0-7-3.8-7-8.5
			C133.6,20.4,136.4,16.6,140.6,16.6z"/>
		<path class="st2" d="M150.4,16.8h8.3v2.8h-5.5v3.3h5.5v2.8h-5.5v5h5.5v2.8h-8.3V16.8z"/>
	</g>
</g>
</svg>
