<?xml version="1.0" encoding="utf-8"?>
<!-- Generator: Adobe Illustrator 16.0.0, SVG Export Plug-In . SVG Version: 6.00 Build 0)  -->
<!DOCTYPE svg PUBLIC "-//W3C//DTD SVG 1.1//EN" "http://www.w3.org/Graphics/SVG/1.1/DTD/svg11.dtd">
<svg version="1.1" id="Layer_1" xmlns="http://www.w3.org/2000/svg" xmlns:xlink="http://www.w3.org/1999/xlink" x="0px" y="0px"
	 width="231.892px" height="167.458px" viewBox="0 0 231.892 167.458" enable-background="new 0 0 231.892 167.458"
	 xml:space="preserve">
<path fill="#6D6E71" d="M51.733,143.32c0-1.941,1.651-3.203,4.563-3.203c3.302,0,6.798,1.116,9.419,3.543l3.835-5.146
	c-3.203-2.962-7.476-4.516-12.622-4.516c-7.622,0-12.284,4.468-12.284,9.856c0,12.187,18.644,8.254,18.644,13.886
	c0,1.894-1.797,3.593-5.632,3.593c-4.466,0-8.011-2.039-10.292-4.419l-3.787,5.39c3.058,3.059,7.525,5.154,13.788,5.154
	c8.691,0,12.964-4.474,12.964-10.397C70.329,144.971,51.733,148.418,51.733,143.32z M100.682,134.484H85.534v32.385h6.894v-11.556
	h8.254c6.991,0,10.875-4.759,10.875-10.391C111.558,139.242,107.722,134.484,100.682,134.484z M99.71,149.244h-7.283v-8.69h7.283
	c2.719,0,4.807,1.651,4.807,4.369C104.518,147.593,102.43,149.244,99.71,149.244z M180.759,140.067c3.301,0,6.214,2.089,7.573,4.71
	l5.923-2.913c-2.281-4.078-6.408-7.914-13.496-7.914c-9.759,0-17.284,6.75-17.284,16.75c0,9.954,7.525,16.759,17.284,16.759
	c7.088,0,11.215-3.94,13.496-7.97l-5.923-2.865c-1.359,2.622-4.272,4.71-7.573,4.71c-5.924,0-10.195-4.516-10.195-10.634
	C170.564,144.583,174.835,140.067,180.759,140.067z M131.958,134.484l-12.486,32.385h7.824l2.04-5.486h13.886l2.039,5.486h7.816
	l-12.479-32.385H131.958z M131.228,155.313l5.05-13.935l5.05,13.935H131.228z M231.892,140.553v-6.069h-22.916v32.385h22.916v-6.069
	H215.87v-7.38h15.683v-6.069H215.87v-6.797H231.892z"/>
<path fill="#92C642" d="M29.956,150.652c0-9.71-7.04-16.168-17.187-16.168H0v32.385h12.817
	C22.916,166.869,29.956,160.458,29.956,150.652z M12.769,160.799H6.894v-20.246h5.924c6.603,0,10.098,4.418,10.098,10.099
	C22.916,156.187,19.177,160.799,12.769,160.799z"/>
<path fill="#92C642" d="M120.726,58.569l0.11-0.006l0.116-0.01l0.106-0.013l0.111-0.01l0.11-0.023l0.109-0.019l0.107-0.023
	l0.106-0.029l0.106-0.023l0.106-0.033l0.103-0.034l0.096-0.035l0.104-0.04l0.101-0.042l0.099-0.042v-0.001l0.096-0.045v0
	l0.095-0.044l0.096-0.049l0.091-0.056v-0.001l0.094-0.05v-0.002l0.09-0.056v-0.001l0.092-0.06l0.083-0.056v-0.001l0.085-0.063
	l0.088-0.065v-0.002l0.087-0.063v-0.001c0.817-0.683,1.393-1.646,1.561-2.738l0.012-0.104v-0.009l0.014-0.101v-0.011l0.009-0.098
	v-0.012l0.009-0.101V54.38l0.005-0.095v-0.016l0.002-0.105v-16.46l-0.002-0.105v-0.016l-0.005-0.095v-0.013l-0.009-0.101v-0.012
	l-0.009-0.098v-0.011l-0.014-0.1v-0.01l-0.012-0.104c-0.167-1.092-0.744-2.057-1.561-2.738v-0.001l-0.087-0.063v-0.002l-0.088-0.065
	l-0.085-0.063v-0.001l-0.083-0.056l-0.092-0.061v0l-0.09-0.056v-0.003l-0.094-0.05v-0.001l-0.091-0.056l-0.096-0.049l-0.095-0.043
	v-0.001l-0.096-0.045v-0.001l-0.099-0.043l-0.101-0.042l-0.104-0.04l-0.096-0.035l-0.103-0.031l-0.106-0.036l-0.106-0.023
	l-0.106-0.028l-0.107-0.024l-0.109-0.019l-0.11-0.023l-0.111-0.009l-0.106-0.014l-0.116-0.01l-0.11-0.006l-0.114-0.005h-7.89
	c-9.715,0-15.858-7.838-15.858-17.15V6.92c0-3.812-3.102-6.915-6.914-6.915H74.085c-3.814,0-6.92,3.106-6.92,6.915v16.682
	c0,3.806,3.104,6.909,6.92,6.909h8.414c9.169,0,16.906,5.95,17.146,15.403v0.04c-0.24,9.453-7.977,15.402-17.146,15.402h-8.414
	c-3.816,0-6.92,3.103-6.92,6.909v16.682c0,3.809,3.106,6.915,6.92,6.915H89.95c3.812,0,6.914-3.104,6.914-6.915v-9.223
	c0-9.312,6.144-17.149,15.858-17.149h7.89L120.726,58.569z M154.772,9.956C148.631,3.814,140.15,0,130.816,0h-15.024v17.424h15.024
	c4.527,0,8.648,1.858,11.64,4.849c2.99,2.99,4.848,7.112,4.848,11.639v24.042c0,4.538-1.852,8.665-4.832,11.655l-0.016-0.016
	c-2.991,2.991-7.113,4.849-11.64,4.849h-15.024v17.424h15.024c9.333,0,17.815-3.814,23.956-9.956v-0.033
	c6.142-6.143,9.955-14.614,9.955-23.923V33.912C164.727,24.578,160.914,16.097,154.772,9.956z"/>
</svg>
