<?xml version="1.0" encoding="utf-8"?>
<!-- Generator: Adobe Illustrator 16.0.0, SVG Export Plug-In . SVG Version: 6.00 Build 0)  -->
<!DOCTYPE svg PUBLIC "-//W3C//DTD SVG 1.1//EN" "http://www.w3.org/Graphics/SVG/1.1/DTD/svg11.dtd">
<svg version="1.1" id="Layer_1" focusable="false" xmlns="http://www.w3.org/2000/svg" xmlns:xlink="http://www.w3.org/1999/xlink"
	 x="0px" y="0px" width="125.348px" height="161.348px" viewBox="62.326 80.326 125.348 161.348"
	 enable-background="new 62.326 80.326 125.348 161.348" xml:space="preserve">
<rect x="62.5" y="80.5" fill="#FFFFFF" stroke="#000000" stroke-width="0.3478" stroke-miterlimit="10" width="125" height="161"/>
<path fill="#43515F" d="M135.5,171.5h-21c-2.899,0-5.25,2.352-5.25,5.25v21c0,2.898,2.351,5.25,5.25,5.25h21
	c2.898,0,5.25-2.352,5.25-5.25v-21C140.75,173.852,138.398,171.5,135.5,171.5z M104,124.25c0-2.899-2.351-5.25-5.25-5.25h-21
	c-2.899,0-5.25,2.351-5.25,5.25v21c0,2.899,2.351,5.25,5.25,5.25h15.704l12.002,21.007c1.822-3.127,5.171-5.257,9.043-5.257h0.046
	L104,147.794V140h36.75v-10.5H104V124.25z M172.25,119h-21c-2.898,0-5.25,2.351-5.25,5.25v21c0,2.899,2.352,5.25,5.25,5.25h21
	c2.898,0,5.25-2.351,5.25-5.25v-21C177.5,121.351,175.148,119,172.25,119z"/>
</svg>
