<?xml version="1.0" encoding="utf-8"?>
<!-- Generator: Adobe Illustrator 16.0.0, SVG Export Plug-In . SVG Version: 6.00 Build 0)  -->
<!DOCTYPE svg PUBLIC "-//W3C//DTD SVG 1.1//EN" "http://www.w3.org/Graphics/SVG/1.1/DTD/svg11.dtd">
<svg version="1.1" id="Layer_1" focusable="false" xmlns="http://www.w3.org/2000/svg" xmlns:xlink="http://www.w3.org/1999/xlink"
	 x="0px" y="0px" width="125.348px" height="161.348px" viewBox="62.674 80.674 125.348 161.348"
	 enable-background="new 62.674 80.674 125.348 161.348" xml:space="preserve">
<rect x="62.847" y="80.847" fill="#FFFFFF" stroke="#000000" stroke-width="0.3478" stroke-miterlimit="10" width="125" height="161"/>
<path fill="#43515F" d="M125.347,167.91c16.304,0,29.531-13.228,29.531-29.531c0-16.303-13.228-29.531-29.531-29.531
	c-16.303,0-29.531,13.227-29.531,29.531S109.044,167.91,125.347,167.91z M151.597,174.472h-11.301
	c-4.552,2.092-9.617,3.281-14.95,3.281c-5.332,0-10.377-1.189-14.95-3.281h-11.3c-14.499,0-26.25,11.751-26.25,26.25v3.281
	c0,5.435,4.409,9.844,9.844,9.844h85.312c5.435,0,9.844-4.408,9.844-9.844v-3.281C177.847,186.223,166.096,174.472,151.597,174.472z
	"/>
</svg>
