<?xml version="1.0" encoding="utf-8"?>
<!-- Generator: Adobe Illustrator 16.0.0, SVG Export Plug-In . SVG Version: 6.00 Build 0)  -->
<!DOCTYPE svg PUBLIC "-//W3C//DTD SVG 1.1//EN" "http://www.w3.org/Graphics/SVG/1.1/DTD/svg11.dtd">
<svg version="1.1" id="Layer_1" xmlns="http://www.w3.org/2000/svg" xmlns:xlink="http://www.w3.org/1999/xlink" x="0px" y="0px"
	 width="125.5px" height="161.5px" viewBox="62.25 80.25 125.5 161.5" enable-background="new 62.25 80.25 125.5 161.5"
	 xml:space="preserve">
<rect x="62.5" y="80.5" fill="#FFFFFF" stroke="#000000" stroke-width="0.5" stroke-miterlimit="10" width="125" height="161"/>
<g>
	<path fill="#43515F" d="M176.007,108.235h-65.078c-0.972,0-1.759,0.788-1.759,1.759v7.035h-7.035c-0.972,0-1.759,0.788-1.759,1.759
		v9.246c-5.482,3.937-8.794,10.281-8.794,17.136c0,3.284,0.808,6.52,2.278,9.449c-0.313,0.902-0.52,1.855-0.52,2.863
		c0,0.32,0.062,0.625,0.095,0.936l-9.667,9.666c-0.323-0.029-0.65-0.049-0.981-0.049c-5.82,0-10.553,4.733-10.553,10.553
		c0,3.115,1.364,5.91,3.517,7.844v25.574c0,0.971,0.787,1.759,1.759,1.759h10.553c0.973,0,1.759-0.788,1.759-1.759v-25.574
		c2.153-1.932,3.518-4.727,3.518-7.844c0-1.349-0.264-2.635-0.727-3.82l7.762-7.764v45.002c0,0.971,0.786,1.759,1.759,1.759h65.077
		c0.973,0,1.759-0.787,1.759-1.759v-5.275h7.036c0.972,0,1.759-0.789,1.759-1.76v-94.978
		C177.765,109.023,176.979,108.235,176.007,108.235z M102.965,130.539c0.044-0.022,0.092-0.037,0.134-0.063l0.193-0.129l3.835,3.834
		c-4.083,2.049-6.752,6.234-6.752,10.99c0,0.586,0.048,1.169,0.132,1.749c0.029,0.197,0.083,0.387,0.122,0.583
		c0.074,0.376,0.148,0.752,0.257,1.12c0.014,0.051,0.02,0.104,0.035,0.153c-0.103,0.014-0.201,0.049-0.302,0.067
		c-0.204,0.035-0.401,0.084-0.6,0.134c-0.3,0.075-0.592,0.167-0.881,0.274c-0.219,0.082-0.437,0.157-0.646,0.253
		c-0.256,0.118-0.496,0.261-0.739,0.401c-0.371,0.214-0.718,0.454-1.052,0.719c-0.192,0.153-0.393,0.292-0.57,0.461
		c-0.681-1.891-1.031-3.896-1.031-5.914C95.1,139.241,98.084,133.785,102.965,130.539z M106.321,154.306
		c0.119,0.157,0.227,0.318,0.329,0.487c0.063,0.107,0.122,0.217,0.177,0.327c0.08,0.156,0.155,0.313,0.218,0.477
		c0.116,0.304,0.208,0.611,0.268,0.914c0.06,0.317,0.099,0.639,0.099,0.971c0,0.406-0.058,0.803-0.148,1.191
		c-0.028,0.118-0.072,0.227-0.105,0.341c-0.081,0.265-0.176,0.521-0.297,0.77c-0.06,0.122-0.126,0.242-0.197,0.362
		c-0.135,0.229-0.291,0.448-0.459,0.653c-0.081,0.099-0.157,0.202-0.243,0.296c-0.266,0.281-0.556,0.544-0.883,0.767
		c-0.843,0.566-1.855,0.898-2.944,0.898c-0.397,0-0.781-0.052-1.152-0.136c-0.009,0-0.018-0.007-0.026-0.01
		c-0.115-0.027-0.222-0.069-0.333-0.102c-0.132-0.041-0.266-0.073-0.392-0.121c-0.164-0.064-0.318-0.145-0.473-0.225
		c-0.103-0.052-0.202-0.105-0.301-0.163c-0.153-0.091-0.305-0.187-0.447-0.292c-0.075-0.056-0.146-0.119-0.218-0.181
		c-0.259-0.215-0.496-0.45-0.708-0.709c-0.06-0.072-0.123-0.141-0.177-0.216c-0.105-0.143-0.203-0.294-0.294-0.449
		c-0.059-0.098-0.111-0.198-0.164-0.301c-0.079-0.154-0.158-0.31-0.222-0.473c-0.056-0.146-0.097-0.299-0.141-0.45
		c-0.026-0.094-0.063-0.181-0.084-0.276c-0.001-0.007-0.005-0.014-0.007-0.021c-0.084-0.369-0.137-0.754-0.137-1.152
		c0-0.776,0.178-1.507,0.48-2.172c0.005-0.012,0.016-0.021,0.021-0.033c0.193-0.417,0.442-0.793,0.726-1.138
		c0.049-0.058,0.095-0.119,0.146-0.176c0.127-0.142,0.264-0.274,0.404-0.401c0.077-0.069,0.158-0.134,0.241-0.198
		c0.141-0.113,0.28-0.226,0.431-0.322c0.214-0.137,0.438-0.261,0.672-0.364c0.118-0.052,0.241-0.091,0.362-0.137
		c0.178-0.065,0.359-0.124,0.544-0.169c0.107-0.026,0.214-0.052,0.323-0.072c0.303-0.053,0.608-0.093,0.925-0.093
		c0.365,0,0.739,0.044,1.147,0.135h0.001h0.002c0.533,0.118,1.025,0.329,1.481,0.593c0.063,0.037,0.132,0.065,0.191,0.104
		c0.179,0.115,0.343,0.248,0.506,0.383c0.078,0.063,0.156,0.122,0.229,0.19c0.149,0.139,0.287,0.29,0.421,0.443
		C106.186,154.139,106.256,154.22,106.321,154.306z M110.928,157.357c0.58,0.083,1.168,0.125,1.76,0.125
		c4.754,0,8.938-2.667,10.988-6.752l3.863,3.862c-3.22,5.069-8.797,8.166-14.851,8.166c-1.101,0-2.2-0.107-3.289-0.32
		c0.009-0.012,0.014-0.026,0.023-0.038c0.007-0.011,0.012-0.024,0.021-0.035c0.06-0.09,0.105-0.19,0.164-0.281
		c0.091-0.15,0.179-0.3,0.262-0.455c0.102-0.187,0.198-0.377,0.285-0.572c0.049-0.111,0.095-0.224,0.14-0.337
		c0.052-0.131,0.104-0.263,0.15-0.399c0.088-0.255,0.152-0.517,0.216-0.781c0.032-0.13,0.074-0.253,0.099-0.385
		c0.014-0.074,0.028-0.146,0.041-0.22c0.081-0.479,0.13-0.962,0.13-1.453C110.929,157.44,110.929,157.398,110.928,157.357z
		 M86.306,210.247h-7.035v-21.722c0.545,0.194,1.11,0.346,1.692,0.447c0.035,0.006,0.069,0.011,0.102,0.016
		c0.563,0.094,1.136,0.153,1.724,0.153c0.587,0,1.161-0.06,1.722-0.153c0.035-0.006,0.069-0.009,0.103-0.016
		c0.583-0.102,1.148-0.253,1.693-0.447V210.247z M86.978,184.207c-0.003,0.002-0.007,0.005-0.011,0.006
		c-0.287,0.215-0.589,0.398-0.898,0.562c-0.039,0.021-0.078,0.044-0.118,0.063c-0.301,0.151-0.608,0.28-0.924,0.387
		c-0.055,0.018-0.109,0.033-0.163,0.051c-1.353,0.421-2.8,0.421-4.153,0c-0.054-0.018-0.109-0.033-0.164-0.051
		c-0.315-0.106-0.623-0.234-0.923-0.387c-0.041-0.021-0.079-0.043-0.118-0.063c-0.31-0.163-0.61-0.349-0.898-0.562
		c-0.003-0.001-0.007-0.004-0.011-0.006c-1.715-1.283-2.844-3.314-2.844-5.619c0-3.879,3.155-7.034,7.036-7.034
		c0.542,0,1.064,0.075,1.573,0.192c0.012,0.003,0.024,0.01,0.037,0.014c0.48,0.111,0.943,0.275,1.382,0.486
		c0.004,0.002,0.007,0.004,0.011,0.006c1.319,0.632,2.427,1.678,3.148,3c0.003,0.006,0.009,0.01,0.012,0.015
		c0.539,0.995,0.873,2.115,0.873,3.322C89.823,180.893,88.694,182.922,86.978,184.207z M90.738,171.67
		c-0.875-1.003-1.932-1.84-3.124-2.456l7.077-7.079c0.009,0.016,0.024,0.027,0.034,0.042c0.695,1.095,1.62,2.018,2.714,2.714
		c0.016,0.011,0.027,0.025,0.042,0.033L90.738,171.67z M165.453,210.247h-61.559v-44.148c0.002,0,0.003-0.002,0.005-0.002
		c0.031-0.007,0.06-0.021,0.092-0.027c0.506-0.11,0.996-0.265,1.465-0.456c0.167-0.068,0.32-0.16,0.481-0.239
		c0.101-0.05,0.201-0.097,0.299-0.147c2.11,0.684,4.275,1.05,6.451,1.05c7.784,0,14.913-4.267,18.602-11.138
		c0.367-0.684,0.244-1.526-0.306-2.075l-6.775-6.775c-0.452-0.452-1.111-0.625-1.729-0.447c-0.616,0.178-1.085,0.674-1.228,1.296
		c-0.921,4.021-4.442,6.827-8.563,6.827c-0.939,0-1.852-0.187-2.737-0.479c-0.07-0.135-0.161-0.257-0.239-0.389
		c-0.144-0.248-0.283-0.495-0.45-0.725c-0.113-0.155-0.245-0.296-0.366-0.443c-0.348-0.424-0.731-0.811-1.154-1.163
		c-0.168-0.143-0.331-0.293-0.512-0.422c-0.218-0.157-0.45-0.287-0.683-0.422c-0.218-0.128-0.436-0.251-0.664-0.362
		c-0.236-0.113-0.476-0.209-0.721-0.301c-0.099-0.036-0.188-0.088-0.289-0.119c-0.05-0.095-0.102-0.188-0.147-0.287
		c-0.063-0.135-0.123-0.272-0.18-0.41c-0.088-0.216-0.165-0.438-0.235-0.659c-0.042-0.134-0.086-0.268-0.122-0.403
		c-0.065-0.244-0.113-0.494-0.155-0.744c-0.02-0.118-0.048-0.233-0.063-0.352c-0.049-0.371-0.078-0.742-0.078-1.115
		c0-4.121,2.807-7.644,6.825-8.563c0.622-0.143,1.12-0.614,1.296-1.228c0.176-0.614,0.007-1.277-0.446-1.729l-6.775-6.775
		c-0.132-0.132-0.283-0.237-0.443-0.318c-0.053-0.026-0.11-0.037-0.166-0.06c-0.097-0.037-0.19-0.084-0.292-0.104v-5.846h7.036
		h54.523v89.7H165.453z M174.247,203.212h-5.276v-84.424c0-0.971-0.786-1.759-1.76-1.759h-54.523v-5.277h61.559V203.212
		L174.247,203.212z"/>
	<path fill="#43515F" d="M144.347,196.177c0-0.97-0.786-1.759-1.759-1.759h-5.277v-7.035c0-0.971-0.785-1.759-1.759-1.759h-5.276
		v-12.312c0-0.972-0.786-1.76-1.759-1.76h-7.035c-0.973,0-1.759,0.788-1.759,1.76v8.793h-5.276c-0.973,0-1.759,0.788-1.759,1.76
		v17.589h-3.518v3.517h38.695v-3.517h-3.518V196.177L144.347,196.177z M116.206,185.624h3.518v15.829h-3.518V185.624z
		 M123.241,183.864v-8.794h3.518v12.312v14.07h-3.518V183.864z M130.276,189.141h3.519v7.036v5.276h-3.519V189.141z
		 M137.312,201.453v-3.518h3.519v3.518H137.312z"/>
	<path fill="#43515F" d="M161.844,169.476c0.008-0.064,0.021-0.128,0.029-0.193c0.042-0.411,0.062-0.829,0.062-1.247
		c0-6.789-5.523-12.312-12.312-12.312c-6.787,0-12.312,5.523-12.312,12.312c0,0.418,0.021,0.836,0.063,1.247
		c0.007,0.065,0.021,0.129,0.028,0.193c0.04,0.349,0.089,0.693,0.158,1.034c0.003,0.016,0.009,0.031,0.012,0.05
		c0.481,2.325,1.625,4.464,3.346,6.182c0.009,0.009,0.02,0.011,0.029,0.02c2.227,2.215,5.294,3.587,8.675,3.587
		s6.448-1.372,8.675-3.587c0.01-0.009,0.021-0.011,0.03-0.02c1.719-1.719,2.862-3.856,3.346-6.182
		c0.003-0.018,0.009-0.034,0.011-0.05C161.754,170.169,161.804,169.824,161.844,169.476z M158.256,169.635
		c-0.024,0.137-0.06,0.271-0.09,0.406c-0.097,0.414-0.221,0.817-0.376,1.206c-0.038,0.1-0.072,0.202-0.115,0.301
		c-0.204,0.465-0.446,0.911-0.724,1.329l-2.565-2.566c0.017-0.037,0.023-0.08,0.042-0.119c0.094-0.209,0.159-0.43,0.227-0.654
		c0.038-0.13,0.092-0.253,0.119-0.387c0.081-0.36,0.127-0.731,0.127-1.115c0-0.332-0.039-0.654-0.099-0.969
		c-0.018-0.099-0.046-0.191-0.071-0.288c-0.052-0.216-0.116-0.429-0.196-0.634c-0.038-0.1-0.077-0.197-0.123-0.293
		c-0.095-0.206-0.204-0.404-0.323-0.595c-0.046-0.073-0.084-0.149-0.134-0.22c-0.177-0.254-0.37-0.49-0.586-0.709
		c-0.036-0.039-0.081-0.069-0.12-0.105c-0.184-0.176-0.38-0.34-0.589-0.488c-0.083-0.057-0.169-0.108-0.255-0.163
		c-0.182-0.114-0.369-0.216-0.566-0.307c-0.095-0.045-0.188-0.089-0.287-0.129c-0.058-0.023-0.111-0.055-0.17-0.075v-3.641
		c0.001,0,0.003,0,0.005,0c0.032,0.007,0.06,0.021,0.092,0.028c0.507,0.109,0.995,0.264,1.465,0.456
		c0.168,0.068,0.32,0.16,0.482,0.239c0.321,0.156,0.64,0.318,0.939,0.51c0.174,0.113,0.334,0.239,0.499,0.365
		c0.262,0.197,0.517,0.401,0.757,0.624c0.155,0.146,0.302,0.301,0.448,0.459c0.218,0.236,0.422,0.484,0.612,0.742
		c0.126,0.173,0.251,0.347,0.366,0.53c0.177,0.278,0.33,0.571,0.473,0.868c0.09,0.187,0.186,0.369,0.263,0.563
		c0.134,0.338,0.235,0.689,0.325,1.047c0.046,0.173,0.105,0.341,0.141,0.521c0.105,0.535,0.17,1.094,0.17,1.665
		C158.418,168.582,158.353,169.113,158.256,169.635z M148.381,169.279L148.381,169.279c-0.166-0.164-0.291-0.355-0.379-0.562
		c-0.088-0.21-0.137-0.44-0.137-0.682c0-0.969,0.788-1.758,1.759-1.758s1.759,0.789,1.759,1.758c0,0.241-0.049,0.472-0.137,0.682
		c-0.088,0.207-0.213,0.398-0.378,0.562l0,0c-0.318,0.318-0.759,0.516-1.243,0.516C149.14,169.795,148.698,169.597,148.381,169.279z
		 M140.998,166.364c0.035-0.179,0.097-0.347,0.141-0.521c0.092-0.355,0.191-0.707,0.325-1.045c0.077-0.193,0.175-0.377,0.265-0.564
		c0.144-0.297,0.297-0.592,0.47-0.869c0.114-0.18,0.239-0.355,0.368-0.529c0.192-0.259,0.395-0.506,0.612-0.742
		c0.146-0.156,0.292-0.312,0.448-0.459c0.237-0.223,0.494-0.427,0.757-0.623c0.165-0.123,0.325-0.251,0.499-0.364
		c0.299-0.192,0.615-0.354,0.938-0.51c0.162-0.079,0.315-0.171,0.482-0.24c0.469-0.193,0.958-0.346,1.465-0.456
		c0.031-0.007,0.06-0.021,0.092-0.028c0.001,0,0.003,0,0.005,0v3.641c-0.06,0.021-0.112,0.053-0.171,0.076
		c-0.098,0.038-0.191,0.082-0.286,0.126c-0.198,0.093-0.386,0.193-0.566,0.308c-0.087,0.055-0.173,0.105-0.255,0.164
		c-0.209,0.147-0.405,0.311-0.59,0.487c-0.038,0.036-0.082,0.067-0.119,0.105c-0.217,0.218-0.409,0.456-0.586,0.709
		c-0.05,0.071-0.088,0.146-0.134,0.22c-0.12,0.191-0.229,0.388-0.323,0.596c-0.044,0.097-0.084,0.193-0.121,0.292
		c-0.079,0.206-0.145,0.417-0.198,0.636c-0.022,0.096-0.051,0.189-0.069,0.288c-0.061,0.317-0.099,0.64-0.099,0.972
		c0,0.385,0.046,0.756,0.123,1.115c0.028,0.134,0.082,0.259,0.121,0.389c0.067,0.222,0.134,0.443,0.227,0.652
		c0.018,0.039,0.023,0.082,0.043,0.119l-2.567,2.566c-0.277-0.418-0.519-0.863-0.722-1.329c-0.043-0.099-0.075-0.2-0.116-0.301
		c-0.153-0.389-0.278-0.793-0.377-1.206c-0.031-0.136-0.064-0.27-0.089-0.406c-0.095-0.521-0.16-1.053-0.16-1.6
		C140.83,167.464,140.893,166.906,140.998,166.364z M144.781,175.364l2.58-2.582c0.689,0.329,1.449,0.53,2.262,0.53
		s1.572-0.2,2.261-0.53l2.58,2.582c-1.39,0.923-3.052,1.466-4.841,1.466C147.835,176.83,146.173,176.286,144.781,175.364z"/>
	<path fill="#43515F" d="M156.658,124.064c-2.908,0-5.276,2.367-5.276,5.276c0,0.219,0.039,0.426,0.065,0.639l-8.724,4.362
		c-0.949-0.913-2.233-1.483-3.653-1.483c-1.921,0-3.588,1.043-4.512,2.581l-7.875-1.576c-0.369-2.55-2.549-4.521-5.201-4.521
		c-2.909,0-5.276,2.367-5.276,5.276s2.367,5.277,5.276,5.277c1.921,0,3.588-1.043,4.511-2.581l7.876,1.576
		c0.369,2.55,2.549,4.521,5.201,4.521c2.908,0,5.276-2.367,5.276-5.276c0-0.218-0.038-0.427-0.064-0.64l8.724-4.362
		c0.949,0.914,2.233,1.484,3.652,1.484c2.909,0,5.277-2.368,5.277-5.277S159.568,124.064,156.658,124.064z M121.482,136.376
		c-0.971,0-1.759-0.79-1.759-1.759c0-0.969,0.788-1.759,1.759-1.759s1.759,0.79,1.759,1.759S122.453,136.376,121.482,136.376z
		 M139.071,139.894c-0.972,0-1.76-0.79-1.76-1.759c0-0.969,0.788-1.759,1.76-1.759s1.759,0.79,1.759,1.759
		C140.83,139.104,140.042,139.894,139.071,139.894z M156.658,131.1c-0.971,0-1.758-0.788-1.758-1.759l0,0
		c0-0.969,0.787-1.759,1.758-1.759s1.76,0.79,1.76,1.759S157.63,131.1,156.658,131.1z"/>
</g>
</svg>
