<?xml version="1.0" encoding="utf-8"?>
<!-- Generator: Adobe Illustrator 16.0.0, SVG Export Plug-In . SVG Version: 6.00 Build 0)  -->
<!DOCTYPE svg PUBLIC "-//W3C//DTD SVG 1.1//EN" "http://www.w3.org/Graphics/SVG/1.1/DTD/svg11.dtd">
<svg version="1.1" id="Layer_1" xmlns="http://www.w3.org/2000/svg" xmlns:xlink="http://www.w3.org/1999/xlink" x="0px" y="0px"
	 width="109.803px" height="30px" viewBox="0 0 109.803 30" enable-background="new 0 0 109.803 30" xml:space="preserve">
<g>
	<path fill="#0069A4" d="M43.715,25.013h-7.771L34.273,30h-0.886l5.923-17.264h1.088L46.322,30h-0.937L43.715,25.013z
		 M43.436,24.203l-3.594-10.758l-3.62,10.758H43.436z"/>
	<path fill="#0069A4" d="M57.434,13.572h-5.24V30h-0.886V13.572h-5.239v-0.835h11.517L57.434,13.572z"/>
	<path fill="#0069A4" d="M74.822,30h-0.86l-0.937-8.606c-0.304-2.835-0.658-6.202-0.784-7.873l-4.81,14.378h-0.836l-4.91-14.378
		c-0.102,1.494-0.481,4.936-0.76,7.67L60.065,30h-0.861l1.772-17.264h1.316l4.733,14.099l4.632-14.099H73L74.822,30z"/>
	<path fill="#0069A4" d="M80.618,30h-0.886V12.736h0.886V30z"/>
	<path fill="#0069A4" d="M91.527,21.95h-3.999V30h-0.887V12.736h3.924c4.05,0,5.848,1.62,5.848,4.556
		c0,2.658-1.544,3.949-3.924,4.506L97.299,30h-1.114L91.527,21.95z M90.742,21.14c2.987,0,4.734-1.189,4.734-3.848
		c0-2.43-1.342-3.771-4.987-3.771h-2.961v7.619H90.742z"/>
	<path fill="#0069A4" d="M109.524,13.546h-7.341v6.986h6.354v0.785h-6.354v7.872h7.619V30h-8.505V12.736h8.353L109.524,13.546z"/>
</g>
<polygon fill="#0069A4" points="25.599,22.439 21.551,29.728 29.226,29.728 "/>
<polygon fill="#0069A4" points="14.408,0 0,29.728 10.193,29.728 19.572,10.375 "/>
<polygon fill="#63B1DC" points="22.442,4.453 19.572,10.375 10.193,29.728 12.09,29.728 20.472,29.728 28.146,15.911 "/>
</svg>
