<?xml version="1.0" encoding="utf-8"?>
<!-- Generator: Adobe Illustrator 16.0.0, SVG Export Plug-In . SVG Version: 6.00 Build 0)  -->
<!DOCTYPE svg PUBLIC "-//W3C//DTD SVG 1.1//EN" "http://www.w3.org/Graphics/SVG/1.1/DTD/svg11.dtd">
<svg version="1.1"
	 id="svg3053" xmlns:dc="http://purl.org/dc/elements/1.1/" xmlns:cc="http://creativecommons.org/ns#" xmlns:rdf="http://www.w3.org/1999/02/22-rdf-syntax-ns#" xmlns:svg="http://www.w3.org/2000/svg" xmlns:sodipodi="http://sodipodi.sourceforge.net/DTD/sodipodi-0.dtd" xmlns:inkscape="http://www.inkscape.org/namespaces/inkscape" sodipodi:docname="DSpace-logo-line.svg" inkscape:version="0.48.2 r9819"
	 xmlns="http://www.w3.org/2000/svg" xmlns:xlink="http://www.w3.org/1999/xlink" x="0px" y="0px" width="102px" height="23px"
	 viewBox="69.35 14.7 102 23" enable-background="new 69.35 14.7 102 23" xml:space="preserve">
<sodipodi:namedview  inkscape:cy="31.629348" inkscape:cx="101.91044" inkscape:zoom="6.2769679" showgrid="false" guidetolerance="10" gridtolerance="10" objecttolerance="10" bordercolor="#666666" pagecolor="#ffffff" borderopacity="1" id="namedview3077" inkscape:current-layer="svg3053" inkscape:window-maximized="0" inkscape:window-y="295" inkscape:window-x="2128" inkscape:window-height="1049" inkscape:window-width="2348" inkscape:pageshadow="2" inkscape:pageopacity="0">
	</sodipodi:namedview>
<g id="g3057">
	<title  id="title3059">Layer 1</title>
	<g id="svg_1">
		<rect id="svg_2" x="77.583" y="22.613" fill="#C0D028" width="6.245" height="6.245"/>
		<g id="svg_3">
			<rect id="svg_4" x="86.656" y="24.09" fill="#FFFFFF" stroke="#808285" stroke-width="0.4225" width="3.502" height="3.502"/>
			<rect id="svg_5" x="78.469" y="15.355" fill="#FFFFFF" stroke="#808285" stroke-width="0.6761" width="4.515" height="4.515"/>
			<rect id="svg_6" x="69.777" y="22.95" fill="#FFFFFF" stroke="#808285" stroke-width="1.0563" width="5.569" height="5.571"/>
			<rect id="svg_7" x="70.832" y="30.842" fill="#FFFFFF" stroke="#808285" stroke-width="0.4225" width="3.46" height="3.46"/>
			<rect id="svg_8" x="77.878" y="31.39" fill="#FFFFFF" stroke="#808285" stroke-width="0.8451" width="5.654" height="5.654"/>
			<rect id="svg_9" x="86.022" y="30.546" fill="#FFFFFF" stroke="#808285" stroke-width="0.6338" width="4.768" height="4.769"/>
		</g>
		<g id="svg_10">
			<path id="svg_11" inkscape:connector-curvature="0" fill="#808285" d="M100.773,19.521h3.095c3.254,0,5.873,2.937,5.873,6.588
				c0,3.651-2.619,6.588-5.873,6.588c-0.318,0-3.095,0-3.095,0V19.521L100.773,19.521z M102.916,30.474h0.873
				c1.905,0,3.492-1.984,3.492-4.365c0-2.381-1.587-4.365-3.492-4.365c-0.317,0-0.873,0-0.873,0V30.474z"/>
			<path id="svg_12" inkscape:connector-curvature="0" fill="#C0D028" d="M116.885,32.855c-1.428,0-2.46-0.477-3.73-1.429
				l0.238-1.984c1.349,0.715,2.381,1.191,3.492,1.191c0.953,0,2.223-0.556,2.223-1.588c0-2.46-6.19-1.509-6.19-5.953
				c0-2.301,1.984-3.889,4.365-3.889c1.508,0,2.46,0.476,3.809,1.588l-0.714,1.746c-0.953-0.635-2.063-1.111-3.095-1.111
				c-1.35,0-2.143,0.714-2.143,1.508c0,2.381,6.19,1.747,6.19,5.794C121.489,31.507,119.267,32.855,116.885,32.855L116.885,32.855z"
				/>
			<path id="svg_13" inkscape:connector-curvature="0" fill="#C0D028" d="M134.029,23.966c0,2.382-1.983,4.366-4.365,4.366
				c-0.159,0-2.619,0-2.619,0v4.365h-2.223V19.521h4.842C132.045,19.521,134.029,21.506,134.029,23.966L134.029,23.966z
				 M131.806,23.966c0-1.19-0.951-2.222-2.222-2.222c-0.238,0-2.619,0-2.619,0v4.365h2.619
				C130.855,26.109,131.806,25.157,131.806,23.966z"/>
			<path id="svg_14" inkscape:connector-curvature="0" fill="#C0D028" d="M140.14,32.697h-2.223v-8.334c0-3.254,1.984-5,4.365-5
				c2.461,0,4.365,1.826,4.365,5v8.334h-2.222v-4.365h-4.365v4.365H140.14L140.14,32.697z M144.506,24.363
				c0-1.905-0.953-2.857-2.224-2.857c-1.189,0-2.222,0.953-2.222,2.857v1.746h4.365v-1.746H144.506L144.506,24.363z"/>
			<path id="svg_15" inkscape:connector-curvature="0" fill="#C0D028" d="M156.411,19.363c1.588,0,3.334,1.032,4.207,2.54
				l-1.35,1.19c-0.873-1.111-1.746-1.587-2.777-1.587c-1.746,0-3.254,1.746-3.254,4.604c0,2.856,1.508,4.604,3.254,4.604
				c0.952,0,1.904-0.477,2.777-1.588l1.35,1.191c-0.952,1.508-2.619,2.539-4.207,2.539c-3.333,0-5.555-3.016-5.555-6.746
				S153.078,19.363,156.411,19.363L156.411,19.363L156.411,19.363z"/>
			<path id="svg_16" inkscape:connector-curvature="0" fill="#C0D028" d="M164.189,19.521h6.588v2.223h-4.365v2.619h4.365v2.222
				h-4.365v3.968h4.365v2.223h-6.588V19.521L164.189,19.521z"/>
		</g>
	</g>
</g>
</svg>
