<?xml version="1.0" encoding="utf-8"?>
<!-- Generator: Adobe Illustrator 18.1.1, SVG Export Plug-In . SVG Version: 6.00 Build 0)  -->
<svg version="1.1" id="Layer_1" xmlns="http://www.w3.org/2000/svg" xmlns:xlink="http://www.w3.org/1999/xlink" x="0px" y="0px"
	 viewBox="1.7 329.9 607.5 132.2" enable-background="new 1.7 329.9 607.5 132.2" xml:space="preserve">
<g>
	<path fill="#469DCC" d="M68.2,453.7c1.4-1.4,3.1-2.8,4.5-4.4c4.7-5.2,8.2-11.2,10-18c2.3-8.9,0.3-17.1-5.2-24.3
		c-2.8-3.7-5.8-7.2-7.9-11.2c-3.1-6.1-5.1-12.4-4.5-19.4c0.5-9.1,3.8-16.8,10.1-23.2c5.2-5.4,11.9-9.4,18.9-12.8
		c10.1-4.7,21-7.7,32.2-9.1c5.4-0.7,11-1,16.6-1.2c6.5-0.2,13.1-0.2,19.6-0.2c0.2,0,0.5,0,0.9,0c-3.7,24.5-7.5,48.6-11.2,73
		c-1.9-0.5-3.5-1-5.1-1.4c-3.3-0.9-6.6-1.9-10-2.8c-0.7-0.2-1-0.5-0.9-1.4c1.2-7,2.3-14,3.3-21c1.2-7.7,2.4-15.4,3.7-23.2
		c0.3-1.9,0.5-3.8,0.9-5.8c0-0.2,0-0.5,0-0.7c-1.9,0-3.7-0.2-5.4,0c-6.6,0.3-13.3,1.2-19.7,2.8c-10.3,2.4-19.9,6.3-28.5,12.4
		c-4.7,3.3-7.7,7.9-8.6,13.6c-0.5,4,0.3,7.9,2.1,11.5c1.6,3.3,4,6.3,6.3,9.1c5.1,6.3,8.6,13.5,9.8,21.7c0.9,5.4,0.5,11-0.7,16.4
		c0,0.2,0,0.5-0.2,0.9c6.6-2.3,13.5-4,20.4-4.9c1.6,5.4,3,10.7,4.5,16.1c-1.7,0.3-3.5,0.5-5.2,0.9c-10.8,1.9-21,5.4-30.1,11.5
		c-1.7,1.2-3.7,2.3-5.6,3.3c-0.3,0.2-0.7,0.2-1,0C77.4,459.3,73,456.6,68.2,453.7z"/>
	<path fill="#FFFFFF" d="M34.1,429.2c9.8,0.3,18.9,1.9,28,4.7c3.1,1,6.3,2.3,9.8,3.5c-1.4,2.1-2.6,4-4,5.6c-2.3,2.6-4.7,4.9-7.2,7.3
		c-0.2,0.2-0.7,0.2-1,0.2c-8.2-2.6-16.6-4.4-25.2-4.5c-4-0.2-7.9,0.2-11.9,0.3c-0.5,0-1.2,0-1.9,0c-7.2-38.6-12.9-77.4-18.9-116.4
		c0.5,0,0.9,0,1.2,0c5.8,0,11.7,0,17.5,0c15.7,0.2,31.1,2.4,45.8,8.4c3,1.2,5.9,2.6,8.9,4c-2.3,2.1-4.4,4-6.3,6.1
		c-1.9,2.1-3.7,4.4-5.4,6.8c-6.5-3-13.5-5.1-20.4-6.5c-7.2-1.4-14.3-2.1-21.8-2.3C25.3,374.2,29.7,401.8,34.1,429.2z"/>
	<path fill="#FFFFFF" d="M593.8,367.5c0-1.4,0-2.8,0-4.2c5.1,0,10.1,0,15.4,0c0,0.3,0,0.7,0,1.2c0,15.6,0,30.9,0,46.5
		c0,3.8-0.3,7.5-1.6,11.2c-1.7,5.1-5.2,8.4-9.8,11c-6.3,3.7-13.3,4.9-20.6,4.4c-5.2-0.3-10-1.6-14.3-4.5c-4.5-3.1-7.5-7.5-8.6-12.9
		c0-0.2,0-0.3,0-0.5c0.3,0,0.9,0,1.2,0c5.2,0,10.5,0,15.7,0c0.3,0,0.9,0.2,1,0.3c2.1,3.7,5.2,4.7,9.3,4.7c5.4,0,9.8-3.1,11.4-7.9
		c0.9-2.4,0.7-4.9,0.7-7.2c-1.4,1.2-2.8,2.8-4.4,3.8c-3.3,2.4-7.3,3.1-11.4,2.8c-9.3-0.7-16.4-4.9-21.1-12.9c-3.1-5.6-4-11.7-3.3-18
		c0.7-5.8,2.6-11.2,6.8-15.4c7.2-7.5,15.9-10,25.9-7.2C589.3,363.3,591.7,365.1,593.8,367.5z M569,388.7c-0.2,0-0.2,0-0.3,0
		c0.5,1.9,0.7,3.8,1.4,5.6c3.5,8.6,15.4,10.3,21,3c2.4-3.3,3.1-7,2.4-11c-1.2-7.2-7.5-11.5-14.5-10.1C573,377.3,569,382.4,569,388.7
		z"/>
	<path fill="#FFFFFF" d="M264.4,368.4c0-1.9,0-3.5,0-5.2c5.2,0,10.3,0,15.4,0c0,17.1,0,34.3,0,51.4c-5.1,0-10.1,0-15.4,0
		c0-1.7,0-3.3,0-5.2c-0.9,0.9-1.6,1.9-2.3,2.6c-2.8,2.6-6.3,3.8-10.1,4.4c-7.7,0.7-14.5-1-20.3-6.5c-4.5-4.2-7-9.4-7.9-15.4
		c-1-6.6-0.3-13.1,2.8-19.2c5.4-10.7,18.2-16.3,29.4-12.8c3.3,1,5.9,2.8,8,5.4C264.1,368,264.2,368,264.4,368.4z M251.7,401.9
		c8.6,0.2,12.8-7,12.8-13.1c0-7.5-5.4-12.9-12.8-13.1c-8.4,0-12.8,6.6-12.8,13.3C238.9,394.6,243.1,402.1,251.7,401.9z"/>
	<path fill="#FFFFFF" d="M384.1,361.4c6.3,0,12.9,2.1,18.2,7.3c4.5,4.4,7.2,9.6,8,15.7c1.4,9.3-1.2,17.5-7.9,24.1
		c-4.4,4.5-10,6.8-16.3,7.3c-5.2,0.5-10.5,0-15.4-2.3c-8.2-3.8-13.1-10.5-15-19.2c-2.4-11.5,2.8-23.9,12.9-29.5
		C373.3,362.4,378,361.4,384.1,361.4z M395.3,388.8c-0.2-0.9-0.2-1.7-0.3-2.6c-1.6-8.6-11-12.9-18.3-8.6c-4.5,2.8-6.8,8-5.8,13.8
		c1.2,7,7.9,11.5,14.7,10C391.3,400.2,395.3,395,395.3,388.8z"/>
	<path fill="#FFFFFF" d="M494.4,361.4c5.8,0,12.4,2.1,17.8,7.3c4.5,4.4,7.2,9.6,8,15.7c1.4,9.3-1.2,17.3-7.7,24.1
		c-4.5,4.5-10.1,6.8-16.4,7.5c-5.2,0.5-10.5,0-15.4-2.3c-8-3.7-12.8-10-14.9-18.5c-3-11.5,2.3-24.1,12.2-30.1
		C482.3,362.6,487.2,361.4,494.4,361.4z M505,388.8c-0.2-0.9-0.2-1.9-0.3-2.8c-1.6-8.4-11-12.8-18.2-8.4c-4.5,2.8-6.8,8-5.8,13.8
		c1.2,7,8,11.5,14.9,10C501,400.2,505,395,505,388.8z"/>
	<path fill="#FFFFFF" d="M333.1,363.1c-0.7,1.9-1.4,3.8-2.1,5.6c-7.7,20.6-15.6,41.2-23.2,62c-0.3,0.7-0.5,1-1.4,0.9
		c-5.1,0-10.1,0-15.4,0c0.2-0.3,0.3-0.7,0.3-1c2.4-5.9,4.9-11.9,7.3-18c0.2-0.5,0.2-1,0-1.6c-6.1-15.7-12.2-31.3-18.3-47
		c-0.2-0.3-0.2-0.7-0.3-1c0.9,0,1.7,0,2.4,0c4.4,0,8.6,0,12.9,0c0.7,0,1,0.2,1.4,1c3.1,9.3,6.5,18.3,9.6,27.4
		c0.2,0.3,0.3,0.7,0.5,1.2c1-3.3,2.1-6.3,3.1-9.4c2.1-6.5,4.2-12.8,6.3-19.2c0.2-0.7,0.5-1,1.4-1c4.7,0,9.4,0,14.2,0
		C332.2,363.1,332.6,363.1,333.1,363.1z"/>
	<path fill="#FFFFFF" d="M220.4,377.5c-5.1,0-10.1,0-15,0c-0.7-3.5-4.5-5.1-7.5-3.1c-1.9,1.2-2.1,3.5-0.2,4.9
		c2.1,1.6,4.7,2.3,7.3,3.1s5.4,1.6,7.9,2.6c10.1,4,10.7,13.1,7.9,19.9c-1.9,5.1-5.9,8.2-11,9.8c-7.2,2.4-14.3,2.1-21-1.7
		c-5.2-2.8-7.9-7.5-8.6-13.3c0-0.2,0-0.3,0-0.7c5.1,0,10.1,0,15.2,0c0.3,2.4,1.7,4,4.2,4.5c1.6,0.3,3.1,0.2,4.7-0.5
		c1.2-0.7,2.3-1.6,2.3-3.1c0.2-1.6-0.7-2.6-2.1-3.3c-2.3-1-4.7-1.9-7-2.8c-2.6-1-5.4-1.9-8-3.1c-3.7-1.7-7-4.2-8.2-8.2
		c-1.7-5.8-0.2-10.8,3.8-15.2c4.7-5.1,11-6.5,17.7-5.9c3.8,0.3,7.7,1.4,10.8,3.7C217.9,368.2,219.8,372.4,220.4,377.5z"/>
	<path fill="#FFFFFF" d="M167.9,415.6c-5.1,3.1-10.1,6.1-15,9.1c5.1,5.1,10.3,10.3,15.4,15.4c-3.8,3.5-7.3,7-11,10.7
		c-5.1-5.1-10.1-10.1-15.4-15.4c-3,5.1-5.9,10-9.1,15c-4.7-16.4-9.3-32.5-14-48.9C135.3,406.1,151.5,410.9,167.9,415.6z"/>
	<path fill="#FFFFFF" d="M335,414.5c0-22.9,0-45.6,0-68.5c5.1,0,10.1,0,15.4,0c0,22.9,0,45.6,0,68.5
		C345.1,414.5,340.1,414.5,335,414.5z"/>
	<path fill="#FFFFFF" d="M431.1,414.5c-5.2,0-10.3,0-15.4,0c0-17.1,0-34.3,0-51.4c4.7,0,9.6,0,14.3,0c0,1.7,0,3.5,0,5.2
		c2.8-5.2,7.3-7,13.1-7c0,5.2,0,10.3,0,15.4c-1.4,0.2-2.6,0.2-4,0.3c-5.4,0.7-8,3.8-8,9.3c0,9.1,0,18,0,27.1
		C431.1,413.7,431.1,414,431.1,414.5z"/>
	<path fill="#FFFFFF" d="M525.5,363.1c4.7,0,9.6,0,14.3,0c0,1.7,0,3.5,0,5.2c2.8-5.2,7.3-7,13.1-7c0,5.2,0,10.3,0,15.4
		c-1.7,0.2-3.3,0.2-4.9,0.5c-4.7,0.9-7,3.7-7.2,8.4c0,3.1,0,6.1,0,9.3c0,6.1,0,12.2,0,18.3c0,0.3,0,0.7,0,1.2c-5.1,0-10.1,0-15.4,0
		C525.5,397.4,525.5,380.3,525.5,363.1z"/>
	<path fill="#FFFFFF" d="M443.2,406.7c0-4.4,3.5-7.9,7.9-7.9s7.9,3.7,7.9,8c0,4.4-3.7,7.9-8,7.9C446.7,414.5,443.2,411,443.2,406.7z
		"/>
	<path fill="#FFFFFF" d="M501,433.9c1.2-3.1,2.4-6.5,3.5-9.8c0.3-1.2,0.9-1.6,2.1-1.4c0.2,0,0.5,0,0.9,0c0.3,4.7,0.5,9.4,0.9,14.3
		c-0.7,0-1.2,0-1.9,0c-0.2-3.7-0.3-7.5-0.7-11.2h-0.2c-0.9,2.4-1.7,4.9-2.6,7.5c-0.3,1-0.7,1.9-1,3c-0.2,0.5-0.5,0.7-1,0.7
		c-0.7,0-0.9-0.3-0.9-0.7c-1-3.5-2.3-7-3.3-10.3c0-0.2-0.2-0.3-0.2-0.5c-0.2,4-0.5,7.9-0.7,11.7c-0.5,0-1,0-1.7,0
		c0.3-4.7,0.7-9.4,1-14.2c0.9,0,1.6,0,2.4,0C498.6,426.4,499.8,430.3,501,433.9z"/>
	<path fill="#FFFFFF" d="M428.7,437.1c0-4.9,0-9.6,0-14.3c2.1,0,4-0.2,6.1,0c4,0.5,6.1,3.5,5.6,7.5c-0.5,4.4-3,6.5-7.7,6.6
		C431.3,437.2,430.1,437.1,428.7,437.1z M430.6,424.3c0,3.8,0,7.5,0,11.2c3,0.5,5.6-0.2,6.8-2.1c1.2-1.9,1.4-5.2,0.2-7.2
		C435.8,424,433.2,424,430.6,424.3z"/>
	<path fill="#FFFFFF" d="M332.9,422.7c2.3-0.2,2.3-0.2,3,1.9c1.2,3.8,2.6,7.5,3.8,11.4c0.2,0.3,0.2,0.7,0.3,1c-0.7,0-1.2,0-1.9,0
		c-0.3-1.2-0.9-2.4-1.2-3.7c-0.2-0.5-0.5-0.9-1-0.7c-1.2,0-2.3,0-3.5,0c-0.5,0-0.9,0.2-1,0.7c-0.2,0.9-0.7,1.7-0.9,2.6
		s-0.7,1.2-1.6,1c-0.2,0-0.3,0-0.7,0C329.8,432.2,331.3,427.5,332.9,422.7z M336.1,431c-0.7-2.1-1.4-4.2-2.1-6.3
		c-0.7,2.1-1.4,4.2-2.1,6.3C333.3,431,334.7,431,336.1,431z"/>
	<path fill="#FFFFFF" d="M404,436.9c-0.3-1.2-0.9-2.4-1.2-3.7c-0.2-0.5-0.3-0.9-1-0.9c-1,0-2.3,0-3.3,0c-0.7,0-0.9,0.2-1.2,0.9
		c-0.3,1.2-0.9,2.4-1.2,3.7c-0.7,0-1.2,0-1.9,0c1.6-4.9,3.3-9.6,4.9-14.3c2.3-0.2,2.3-0.2,3,1.9c1.4,3.8,2.6,7.7,4,11.5
		c0,0.2,0.2,0.5,0.2,0.7C405.4,436.9,404.7,436.9,404,436.9z M402.1,431c-0.7-2.1-1.4-4.2-2.1-6.3c-0.7,2.1-1.4,4.2-2.1,6.3
		C399.5,431,400.7,431,402.1,431z"/>
	<path fill="#FFFFFF" d="M463.5,422.7c2.6,0,5.1,0,7.5,0c0,0.5,0,0.9,0,1.6c-1.9,0-3.8,0-5.8,0c0,1.6,0,3,0,4.4c1.7,0,3.5,0,5.4,0
		c0,0.5,0,1,0,1.6c-1.7,0-3.5,0-5.4,0c0,1.7,0,3.3,0,5.1c1.9,0,4,0,6.1,0c0,0.5,0,1,0,1.6c-2.6,0-5.2,0-8,0
		C463.5,432.2,463.5,427.5,463.5,422.7z"/>
	<path fill="#FFFFFF" d="M372.2,423.3c-0.2,0.5-0.3,0.9-0.3,1.4c-2.8-0.9-5.4-1-7.3,1.6c-1.4,1.9-1.4,5.4,0,7.3
		c1.4,1.9,3.8,2.4,7.3,1.4c0.2,0.5,0.2,0.9,0.3,1.4c-3.1,1.6-7.5,0.7-9.3-1.7c-2.1-2.6-1.9-7.2,0.2-9.8
		C365.1,422.6,369.4,421.7,372.2,423.3z"/>
	<path fill="#FFFFFF" d="M541.6,422.7c-1,1.9-1.9,3.7-3.1,5.2c-1.4,1.9-1.9,4-1.7,6.3c0.2,0.9,0,1.7,0,2.6c-0.5,0-1.2,0-1.9,0
		c0-1.4,0-2.6,0-4c0-1.2-0.2-2.3-0.9-3.5c-1.2-1.9-2.1-4-3.3-5.9c-0.2-0.2-0.2-0.5-0.3-0.7c1.9-0.3,1.9-0.3,2.8,1.2
		c0.9,1.7,1.7,3.5,2.8,5.4c0.9-1.7,1.7-3.5,2.6-5.1C539.5,422.6,539.5,422.6,541.6,422.7z"/>
</g>
</svg>
