<?xml version="1.0" encoding="UTF-8" standalone="no"?>
<svg
   xmlns:svg="http://www.w3.org/2000/svg"
   xmlns="http://www.w3.org/2000/svg"
   version="1.1"
   width="17"
   height="17">
  <g transform="matrix(0.94444444,0,0,0.94444444,-320.70635,-534.7627)">
    <path
       d="m 348.57143,566.21933 c -4.97025,0 -9,4.02975 -9,9 0,4.97025 4.02975,9 9,9 4.97025,0 9,-4.02975 9,-9 0,-4.97025 -4.02975,-9 -9,-9 m 5.625,10.6875 -3.9375,0 0,3.9375 -3.375,0 0,-3.9375 -3.9375,0 0,-3.375 3.9375,0 0,-3.9375 3.375,0 0,3.9375 3.9375,0 0,3.375 z"
       style="fill:#e5e9e8;fill-opacity:1;fill-rule:nonzero;stroke:none" />
  </g>
</svg>
